<svg xmlns="http://www.w3.org/2000/svg" xmlns:xlink="http://www.w3.org/1999/xlink" width="940" zoomAndPan="magnify" viewBox="0 0 705 591.000005" height="788" preserveAspectRatio="xMidYMid meet" version="1.0"><defs><g/><clipPath id="8e6c76192b"><path d="M 0.59375 0 L 704.402344 0 L 704.402344 590 L 0.59375 590 Z M 0.59375 0 " clip-rule="nonzero"/></clipPath><clipPath id="f7c67c2484"><path d="M 0.59375 143.171875 L 261.15625 143.171875 L 261.15625 421.699219 L 0.59375 421.699219 Z M 0.59375 143.171875 " clip-rule="nonzero"/></clipPath></defs><g clip-path="url(#8e6c76192b)"><path fill="#ffffff" d="M 0.59375 0 L 704.40625 0 L 704.40625 590 L 0.59375 590 Z M 0.59375 0 " fill-opacity="1" fill-rule="nonzero"/><path fill="#ffffff" d="M 0.59375 0 L 704.40625 0 L 704.40625 590 L 0.59375 590 Z M 0.59375 0 " fill-opacity="1" fill-rule="nonzero"/></g><g fill="#003a47" fill-opacity="1"><g transform="translate(285.933696, 259.061667)"><g><path d="M 36.109375 -47.953125 C 36.878906 -48.296875 38.082031 -48.691406 39.71875 -49.140625 C 41.363281 -49.597656 43.023438 -49.828125 44.703125 -49.828125 C 47.628906 -49.828125 50.066406 -49.390625 52.015625 -48.515625 C 53.972656 -47.648438 55.164062 -46.378906 55.59375 -44.703125 C 56.351562 -41.835938 57.066406 -39.164062 57.734375 -36.6875 C 58.398438 -34.207031 59.046875 -31.832031 59.671875 -29.5625 C 60.296875 -27.300781 60.90625 -25.050781 61.5 -22.8125 C 62.09375 -20.582031 62.671875 -18.25 63.234375 -15.8125 L 63.75 -15.8125 C 64.382812 -20.0625 64.941406 -24.125 65.421875 -28 C 65.910156 -31.875 66.363281 -35.675781 66.78125 -39.40625 C 67.207031 -43.144531 67.628906 -46.84375 68.046875 -50.5 C 68.460938 -54.164062 68.878906 -57.882812 69.296875 -61.65625 C 71.878906 -63.125 74.640625 -63.859375 77.578125 -63.859375 C 80.160156 -63.859375 82.390625 -63.300781 84.265625 -62.1875 C 86.148438 -61.070312 87.09375 -59.1875 87.09375 -56.53125 C 87.09375 -55 86.9375 -52.816406 86.625 -49.984375 C 86.3125 -47.160156 85.894531 -44.003906 85.375 -40.515625 C 84.851562 -37.023438 84.242188 -33.359375 83.546875 -29.515625 C 82.847656 -25.679688 82.113281 -22.019531 81.34375 -18.53125 C 80.570312 -15.039062 79.785156 -11.878906 78.984375 -9.046875 C 78.179688 -6.222656 77.429688 -4.046875 76.734375 -2.515625 C 75.691406 -1.535156 73.984375 -0.726562 71.609375 -0.09375 C 69.234375 0.53125 66.789062 0.84375 64.28125 0.84375 C 61 0.84375 58.222656 0.40625 55.953125 -0.46875 C 53.679688 -1.34375 52.300781 -2.582031 51.8125 -4.1875 C 50.90625 -6.976562 49.925781 -10.289062 48.875 -14.125 C 47.832031 -17.96875 46.71875 -22.191406 45.53125 -26.796875 C 44.5625 -22.265625 43.550781 -17.832031 42.5 -13.5 C 41.457031 -9.175781 40.515625 -5.515625 39.671875 -2.515625 C 38.628906 -1.535156 37.0625 -0.726562 34.96875 -0.09375 C 32.875 0.53125 30.570312 0.84375 28.0625 0.84375 C 24.914062 0.84375 22.066406 0.40625 19.515625 -0.46875 C 16.972656 -1.34375 15.316406 -2.582031 14.546875 -4.1875 C 13.921875 -5.445312 13.238281 -7.3125 12.5 -9.78125 C 11.769531 -12.257812 11.019531 -15.085938 10.25 -18.265625 C 9.488281 -21.441406 8.707031 -24.878906 7.90625 -28.578125 C 7.101562 -32.273438 6.367188 -35.972656 5.703125 -39.671875 C 5.035156 -43.367188 4.421875 -46.976562 3.859375 -50.5 C 3.304688 -54.03125 2.890625 -57.257812 2.609375 -60.1875 C 3.585938 -61.101562 4.945312 -61.941406 6.6875 -62.703125 C 8.4375 -63.472656 10.328125 -63.859375 12.359375 -63.859375 C 15.003906 -63.859375 17.179688 -63.28125 18.890625 -62.125 C 20.597656 -60.976562 21.664062 -59.046875 22.09375 -56.328125 C 23.207031 -49.203125 24.128906 -43.265625 24.859375 -38.515625 C 25.597656 -33.773438 26.191406 -29.882812 26.640625 -26.84375 C 27.097656 -23.8125 27.429688 -21.457031 27.640625 -19.78125 C 27.847656 -18.101562 28.054688 -16.78125 28.265625 -15.8125 L 28.78125 -15.8125 C 29.414062 -18.601562 30.007812 -21.179688 30.5625 -23.546875 C 31.125 -25.921875 31.703125 -28.3125 32.296875 -30.71875 C 32.890625 -33.132812 33.5 -35.71875 34.125 -38.46875 C 34.75 -41.226562 35.410156 -44.390625 36.109375 -47.953125 Z M 36.109375 -47.953125 "/></g></g></g><g fill="#003a47" fill-opacity="1"><g transform="translate(376.264442, 259.061667)"><g><path d="M 25.125 -0.421875 C 24.351562 -0.210938 23.144531 -0.00390625 21.5 0.203125 C 19.863281 0.410156 18.242188 0.515625 16.640625 0.515625 C 15.035156 0.515625 13.625 0.394531 12.40625 0.15625 C 11.1875 -0.0820312 10.15625 -0.515625 9.3125 -1.140625 C 8.476562 -1.773438 7.847656 -2.648438 7.421875 -3.765625 C 7.003906 -4.878906 6.796875 -6.347656 6.796875 -8.171875 L 6.796875 -63.4375 C 7.566406 -63.582031 8.789062 -63.773438 10.46875 -64.015625 C 12.144531 -64.253906 13.75 -64.375 15.28125 -64.375 C 16.882812 -64.375 18.296875 -64.253906 19.515625 -64.015625 C 20.742188 -63.773438 21.773438 -63.335938 22.609375 -62.703125 C 23.453125 -62.078125 24.082031 -61.207031 24.5 -60.09375 C 24.914062 -58.976562 25.125 -57.507812 25.125 -55.6875 Z M 25.125 -0.421875 "/></g></g></g><g fill="#003a47" fill-opacity="1"><g transform="translate(408.188981, 259.061667)"><g><path d="M 24.8125 -25.234375 C 21.738281 -26.273438 18.945312 -27.335938 16.4375 -28.421875 C 13.925781 -29.503906 11.757812 -30.8125 9.9375 -32.34375 C 8.125 -33.882812 6.710938 -35.71875 5.703125 -37.84375 C 4.691406 -39.96875 4.1875 -42.566406 4.1875 -45.640625 C 4.1875 -51.578125 6.472656 -56.320312 11.046875 -59.875 C 15.617188 -63.4375 22.019531 -65.21875 30.25 -65.21875 C 33.25 -65.21875 36.039062 -65.007812 38.625 -64.59375 C 41.207031 -64.175781 43.421875 -63.53125 45.265625 -62.65625 C 47.117188 -61.78125 48.566406 -60.660156 49.609375 -59.296875 C 50.660156 -57.941406 51.1875 -56.359375 51.1875 -54.546875 C 51.1875 -52.722656 50.765625 -51.164062 49.921875 -49.875 C 49.085938 -48.59375 48.082031 -47.492188 46.90625 -46.578125 C 45.363281 -47.554688 43.300781 -48.410156 40.71875 -49.140625 C 38.132812 -49.878906 35.3125 -50.25 32.25 -50.25 C 29.101562 -50.25 26.796875 -49.8125 25.328125 -48.9375 C 23.867188 -48.0625 23.140625 -46.960938 23.140625 -45.640625 C 23.140625 -44.597656 23.59375 -43.742188 24.5 -43.078125 C 25.40625 -42.410156 26.765625 -41.800781 28.578125 -41.25 L 34.125 -39.46875 C 40.6875 -37.375 45.726562 -34.703125 49.25 -31.453125 C 52.78125 -28.210938 54.546875 -23.800781 54.546875 -18.21875 C 54.546875 -12.28125 52.207031 -7.476562 47.53125 -3.8125 C 42.851562 -0.15625 35.976562 1.671875 26.90625 1.671875 C 23.695312 1.671875 20.710938 1.410156 17.953125 0.890625 C 15.191406 0.367188 12.78125 -0.394531 10.71875 -1.40625 C 8.664062 -2.425781 7.0625 -3.6875 5.90625 -5.1875 C 4.757812 -6.6875 4.1875 -8.410156 4.1875 -10.359375 C 4.1875 -12.390625 4.78125 -14.117188 5.96875 -15.546875 C 7.15625 -16.972656 8.445312 -18.070312 9.84375 -18.84375 C 11.789062 -17.3125 14.175781 -15.984375 17 -14.859375 C 19.832031 -13.742188 22.925781 -13.1875 26.28125 -13.1875 C 29.695312 -13.1875 32.101562 -13.707031 33.5 -14.75 C 34.894531 -15.800781 35.59375 -17.023438 35.59375 -18.421875 C 35.59375 -19.816406 35.035156 -20.878906 33.921875 -21.609375 C 32.804688 -22.347656 31.234375 -23.066406 29.203125 -23.765625 Z M 24.8125 -25.234375 "/></g></g></g><g fill="#003a47" fill-opacity="1"><g transform="translate(465.862496, 259.061667)"><g><path d="M 25.015625 -13.609375 C 25.785156 -13.472656 26.726562 -13.347656 27.84375 -13.234375 C 28.957031 -13.128906 30.003906 -13.078125 30.984375 -13.078125 C 33.359375 -13.078125 35.539062 -13.425781 37.53125 -14.125 C 39.519531 -14.820312 41.226562 -15.90625 42.65625 -17.375 C 44.09375 -18.84375 45.210938 -20.742188 46.015625 -23.078125 C 46.816406 -25.421875 47.21875 -28.234375 47.21875 -31.515625 C 47.21875 -37.796875 45.75 -42.519531 42.8125 -45.6875 C 39.882812 -48.863281 35.976562 -50.453125 31.09375 -50.453125 C 30.113281 -50.453125 29.117188 -50.414062 28.109375 -50.34375 C 27.097656 -50.28125 26.066406 -50.179688 25.015625 -50.046875 Z M 30.875 1.671875 C 29.695312 1.671875 28.335938 1.632812 26.796875 1.5625 C 25.265625 1.5 23.675781 1.363281 22.03125 1.15625 C 20.394531 0.945312 18.753906 0.679688 17.109375 0.359375 C 15.472656 0.046875 13.957031 -0.382812 12.5625 -0.9375 C 8.71875 -2.40625 6.796875 -4.953125 6.796875 -8.578125 L 6.796875 -57.46875 C 6.796875 -58.9375 7.195312 -60.070312 8 -60.875 C 8.8125 -61.675781 9.914062 -62.320312 11.3125 -62.8125 C 14.3125 -63.789062 17.484375 -64.4375 20.828125 -64.75 C 24.179688 -65.0625 27.179688 -65.21875 29.828125 -65.21875 C 35.273438 -65.21875 40.210938 -64.550781 44.640625 -63.21875 C 49.078125 -61.894531 52.882812 -59.851562 56.0625 -57.09375 C 59.238281 -54.34375 61.695312 -50.875 63.4375 -46.6875 C 65.1875 -42.5 66.0625 -37.546875 66.0625 -31.828125 C 66.0625 -26.242188 65.222656 -21.375 63.546875 -17.21875 C 61.867188 -13.0625 59.476562 -9.570312 56.375 -6.75 C 53.269531 -3.925781 49.550781 -1.816406 45.21875 -0.421875 C 40.894531 0.972656 36.113281 1.671875 30.875 1.671875 Z M 30.875 1.671875 "/></g></g></g><g fill="#003a47" fill-opacity="1"><g transform="translate(535.573115, 259.061667)"><g><path d="M 3.65625 -31.828125 C 3.65625 -37.265625 4.507812 -42.078125 6.21875 -46.265625 C 7.9375 -50.453125 10.273438 -53.957031 13.234375 -56.78125 C 16.203125 -59.613281 19.691406 -61.757812 23.703125 -63.21875 C 27.722656 -64.6875 32.070312 -65.421875 36.75 -65.421875 C 41.425781 -65.421875 45.769531 -64.6875 49.78125 -63.21875 C 53.789062 -61.757812 57.296875 -59.613281 60.296875 -56.78125 C 63.296875 -53.957031 65.648438 -50.453125 67.359375 -46.265625 C 69.078125 -42.078125 69.9375 -37.265625 69.9375 -31.828125 C 69.9375 -26.378906 69.097656 -21.539062 67.421875 -17.3125 C 65.742188 -13.09375 63.421875 -9.570312 60.453125 -6.75 C 57.484375 -3.925781 53.972656 -1.78125 49.921875 -0.3125 C 45.878906 1.15625 41.488281 1.890625 36.75 1.890625 C 32 1.890625 27.597656 1.140625 23.546875 -0.359375 C 19.503906 -1.859375 16.015625 -4.039062 13.078125 -6.90625 C 10.148438 -9.769531 7.847656 -13.296875 6.171875 -17.484375 C 4.492188 -21.671875 3.65625 -26.453125 3.65625 -31.828125 Z M 22.5 -31.828125 C 22.5 -25.472656 23.789062 -20.722656 26.375 -17.578125 C 28.957031 -14.441406 32.414062 -12.875 36.75 -12.875 C 41.144531 -12.875 44.632812 -14.441406 47.21875 -17.578125 C 49.800781 -20.722656 51.09375 -25.472656 51.09375 -31.828125 C 51.09375 -38.109375 49.816406 -42.816406 47.265625 -45.953125 C 44.710938 -49.097656 41.238281 -50.671875 36.84375 -50.671875 C 32.519531 -50.671875 29.046875 -49.113281 26.421875 -46 C 23.804688 -42.894531 22.5 -38.171875 22.5 -31.828125 Z M 22.5 -31.828125 "/></g></g></g><g fill="#003a47" fill-opacity="1"><g transform="translate(609.156568, 259.061667)"><g><path d="M 50.671875 -15.59375 C 49.765625 -14.832031 48.59375 -14.222656 47.15625 -13.765625 C 45.726562 -13.304688 44.070312 -13.078125 42.1875 -13.078125 C 39.675781 -13.078125 37.597656 -13.390625 35.953125 -14.015625 C 34.316406 -14.648438 33.253906 -15.734375 32.765625 -17.265625 C 30.804688 -23.410156 29.195312 -28.382812 27.9375 -32.1875 C 26.6875 -35.988281 25.710938 -39.320312 25.015625 -42.1875 L 24.5 -42.1875 C 24.289062 -38.070312 24.132812 -34.320312 24.03125 -30.9375 C 23.925781 -27.550781 23.851562 -24.25 23.8125 -21.03125 C 23.78125 -17.820312 23.710938 -14.578125 23.609375 -11.296875 C 23.503906 -8.023438 23.347656 -4.398438 23.140625 -0.421875 C 22.234375 -0.0664062 21.046875 0.226562 19.578125 0.46875 C 18.109375 0.71875 16.640625 0.84375 15.171875 0.84375 C 12.109375 0.84375 9.71875 0.351562 8 -0.625 C 6.289062 -1.601562 5.4375 -3.382812 5.4375 -5.96875 L 8.484375 -59.359375 C 9.035156 -60.265625 10.253906 -61.238281 12.140625 -62.28125 C 14.023438 -63.332031 16.675781 -63.859375 20.09375 -63.859375 C 23.789062 -63.859375 26.6875 -63.28125 28.78125 -62.125 C 30.875 -60.976562 32.410156 -59.113281 33.390625 -56.53125 C 34.023438 -54.851562 34.707031 -52.929688 35.4375 -50.765625 C 36.164062 -48.609375 36.894531 -46.378906 37.625 -44.078125 C 38.363281 -41.773438 39.082031 -39.488281 39.78125 -37.21875 C 40.476562 -34.945312 41.109375 -32.90625 41.671875 -31.09375 L 42.1875 -31.09375 C 43.863281 -36.957031 45.535156 -42.628906 47.203125 -48.109375 C 48.878906 -53.585938 50.414062 -58.175781 51.8125 -61.875 C 52.863281 -62.425781 54.207031 -62.894531 55.84375 -63.28125 C 57.488281 -63.664062 59.320312 -63.859375 61.34375 -63.859375 C 64.757812 -63.859375 67.550781 -63.351562 69.71875 -62.34375 C 71.882812 -61.332031 73.140625 -59.882812 73.484375 -58 C 73.765625 -56.601562 74.0625 -54.457031 74.375 -51.5625 C 74.6875 -48.664062 75.015625 -45.398438 75.359375 -41.765625 C 75.710938 -38.140625 76.0625 -34.300781 76.40625 -30.25 C 76.757812 -26.207031 77.09375 -22.316406 77.40625 -18.578125 C 77.726562 -14.847656 77.992188 -11.425781 78.203125 -8.3125 C 78.410156 -5.207031 78.550781 -2.820312 78.625 -1.15625 C 77.4375 -0.457031 76.195312 0.046875 74.90625 0.359375 C 73.613281 0.679688 71.957031 0.84375 69.9375 0.84375 C 67.28125 0.84375 65.046875 0.390625 63.234375 -0.515625 C 61.421875 -1.429688 60.441406 -3.210938 60.296875 -5.859375 C 59.878906 -13.460938 59.617188 -20.300781 59.515625 -26.375 C 59.410156 -32.445312 59.253906 -37.546875 59.046875 -41.671875 L 58.515625 -41.671875 C 57.816406 -38.941406 56.804688 -35.519531 55.484375 -31.40625 C 54.160156 -27.289062 52.554688 -22.019531 50.671875 -15.59375 Z M 50.671875 -15.59375 "/></g></g></g><g fill="#003a47" fill-opacity="1"><g transform="translate(295.219184, 346.816519)"><g><path d="M 2.4375 0 C 2.269531 0 2.128906 -0.0546875 2.015625 -0.171875 C 1.898438 -0.285156 1.84375 -0.4375 1.84375 -0.625 L 1.84375 -16.796875 C 1.84375 -16.972656 1.898438 -17.117188 2.015625 -17.234375 C 2.128906 -17.347656 2.269531 -17.40625 2.4375 -17.40625 L 13.734375 -17.40625 C 13.910156 -17.40625 14.054688 -17.347656 14.171875 -17.234375 C 14.296875 -17.117188 14.359375 -16.972656 14.359375 -16.796875 L 14.359375 -14.796875 C 14.359375 -14.617188 14.296875 -14.46875 14.171875 -14.34375 C 14.054688 -14.226562 13.910156 -14.171875 13.734375 -14.171875 L 5.671875 -14.171875 L 5.671875 -10.296875 L 13.1875 -10.296875 C 13.363281 -10.296875 13.507812 -10.238281 13.625 -10.125 C 13.75 -10.007812 13.8125 -9.859375 13.8125 -9.671875 L 13.8125 -7.828125 C 13.8125 -7.671875 13.75 -7.53125 13.625 -7.40625 C 13.507812 -7.28125 13.363281 -7.21875 13.1875 -7.21875 L 5.671875 -7.21875 L 5.671875 -3.234375 L 13.9375 -3.234375 C 14.113281 -3.234375 14.257812 -3.175781 14.375 -3.0625 C 14.488281 -2.945312 14.546875 -2.796875 14.546875 -2.609375 L 14.546875 -0.625 C 14.546875 -0.4375 14.488281 -0.285156 14.375 -0.171875 C 14.257812 -0.0546875 14.113281 0 13.9375 0 Z M 2.4375 0 "/></g></g></g><g fill="#003a47" fill-opacity="1"><g transform="translate(320.863312, 346.816519)"><g><path d="M 2.09375 -5.84375 C 1.925781 -5.84375 1.785156 -5.898438 1.671875 -6.015625 C 1.554688 -6.128906 1.5 -6.28125 1.5 -6.46875 L 1.5 -8.453125 C 1.5 -8.640625 1.554688 -8.789062 1.671875 -8.90625 C 1.785156 -9.019531 1.925781 -9.078125 2.09375 -9.078125 L 9.828125 -9.078125 C 9.992188 -9.078125 10.132812 -9.019531 10.25 -8.90625 C 10.363281 -8.789062 10.421875 -8.640625 10.421875 -8.453125 L 10.421875 -6.46875 C 10.421875 -6.28125 10.363281 -6.128906 10.25 -6.015625 C 10.132812 -5.898438 9.992188 -5.84375 9.828125 -5.84375 Z M 2.09375 -5.84375 "/></g></g></g><g fill="#003a47" fill-opacity="1"><g transform="translate(342.726884, 346.816519)"><g><path d="M 2.4375 0 C 2.269531 0 2.128906 -0.0546875 2.015625 -0.171875 C 1.898438 -0.285156 1.84375 -0.4375 1.84375 -0.625 L 1.84375 -16.796875 C 1.84375 -16.972656 1.898438 -17.117188 2.015625 -17.234375 C 2.128906 -17.347656 2.269531 -17.40625 2.4375 -17.40625 L 5.25 -17.40625 C 5.414062 -17.40625 5.554688 -17.347656 5.671875 -17.234375 C 5.785156 -17.117188 5.84375 -16.972656 5.84375 -16.796875 L 5.84375 -3.359375 L 13.5625 -3.359375 C 13.738281 -3.359375 13.882812 -3.300781 14 -3.1875 C 14.113281 -3.070312 14.171875 -2.921875 14.171875 -2.734375 L 14.171875 -0.625 C 14.171875 -0.4375 14.113281 -0.285156 14 -0.171875 C 13.882812 -0.0546875 13.738281 0 13.5625 0 Z M 2.4375 0 "/></g></g></g><g fill="#003a47" fill-opacity="1"><g transform="translate(367.301503, 346.816519)"><g><path d="M 2.4375 0 C 2.269531 0 2.128906 -0.0546875 2.015625 -0.171875 C 1.898438 -0.285156 1.84375 -0.4375 1.84375 -0.625 L 1.84375 -16.796875 C 1.84375 -16.972656 1.898438 -17.117188 2.015625 -17.234375 C 2.128906 -17.347656 2.269531 -17.40625 2.4375 -17.40625 L 13.734375 -17.40625 C 13.910156 -17.40625 14.054688 -17.347656 14.171875 -17.234375 C 14.296875 -17.117188 14.359375 -16.972656 14.359375 -16.796875 L 14.359375 -14.796875 C 14.359375 -14.617188 14.296875 -14.46875 14.171875 -14.34375 C 14.054688 -14.226562 13.910156 -14.171875 13.734375 -14.171875 L 5.671875 -14.171875 L 5.671875 -10.296875 L 13.1875 -10.296875 C 13.363281 -10.296875 13.507812 -10.238281 13.625 -10.125 C 13.75 -10.007812 13.8125 -9.859375 13.8125 -9.671875 L 13.8125 -7.828125 C 13.8125 -7.671875 13.75 -7.53125 13.625 -7.40625 C 13.507812 -7.28125 13.363281 -7.21875 13.1875 -7.21875 L 5.671875 -7.21875 L 5.671875 -3.234375 L 13.9375 -3.234375 C 14.113281 -3.234375 14.257812 -3.175781 14.375 -3.0625 C 14.488281 -2.945312 14.546875 -2.796875 14.546875 -2.609375 L 14.546875 -0.625 C 14.546875 -0.4375 14.488281 -0.285156 14.375 -0.171875 C 14.257812 -0.0546875 14.113281 0 13.9375 0 Z M 2.4375 0 "/></g></g></g><g fill="#003a47" fill-opacity="1"><g transform="translate(392.945635, 346.816519)"><g><path d="M 0.828125 0 C 0.671875 0 0.539062 -0.0507812 0.4375 -0.15625 C 0.34375 -0.269531 0.296875 -0.390625 0.296875 -0.515625 C 0.296875 -0.597656 0.304688 -0.675781 0.328125 -0.75 L 6.25 -16.734375 C 6.289062 -16.921875 6.382812 -17.078125 6.53125 -17.203125 C 6.6875 -17.335938 6.894531 -17.40625 7.15625 -17.40625 L 10.34375 -17.40625 C 10.613281 -17.40625 10.820312 -17.335938 10.96875 -17.203125 C 11.113281 -17.078125 11.222656 -16.921875 11.296875 -16.734375 L 17.1875 -0.75 C 17.21875 -0.675781 17.234375 -0.597656 17.234375 -0.515625 C 17.234375 -0.390625 17.179688 -0.269531 17.078125 -0.15625 C 16.972656 -0.0507812 16.84375 0 16.6875 0 L 14.078125 0 C 13.847656 0 13.671875 -0.0546875 13.546875 -0.171875 C 13.429688 -0.285156 13.359375 -0.394531 13.328125 -0.5 L 12.265625 -3.28125 L 5.25 -3.28125 L 4.203125 -0.5 C 4.148438 -0.394531 4.070312 -0.285156 3.96875 -0.171875 C 3.863281 -0.0546875 3.6875 0 3.4375 0 Z M 6.1875 -6.5 L 11.3125 -6.5 L 8.75 -13.625 Z M 6.1875 -6.5 "/></g></g></g><g fill="#003a47" fill-opacity="1"><g transform="translate(420.405423, 346.816519)"><g><path d="M 2.4375 0 C 2.269531 0 2.128906 -0.0546875 2.015625 -0.171875 C 1.898438 -0.285156 1.84375 -0.4375 1.84375 -0.625 L 1.84375 -16.796875 C 1.84375 -16.972656 1.898438 -17.117188 2.015625 -17.234375 C 2.128906 -17.347656 2.269531 -17.40625 2.4375 -17.40625 L 9.046875 -17.40625 C 11.117188 -17.40625 12.753906 -16.925781 13.953125 -15.96875 C 15.148438 -15.019531 15.75 -13.648438 15.75 -11.859375 C 15.75 -10.648438 15.457031 -9.640625 14.875 -8.828125 C 14.289062 -8.015625 13.507812 -7.410156 12.53125 -7.015625 L 16.0625 -0.796875 C 16.113281 -0.691406 16.140625 -0.597656 16.140625 -0.515625 C 16.140625 -0.390625 16.085938 -0.269531 15.984375 -0.15625 C 15.878906 -0.0507812 15.757812 0 15.625 0 L 12.828125 0 C 12.535156 0 12.3125 -0.078125 12.15625 -0.234375 C 12.007812 -0.390625 11.90625 -0.535156 11.84375 -0.671875 L 8.8125 -6.375 L 5.796875 -6.375 L 5.796875 -0.625 C 5.796875 -0.4375 5.738281 -0.285156 5.625 -0.171875 C 5.507812 -0.0546875 5.359375 0 5.171875 0 Z M 5.796875 -9.53125 L 9 -9.53125 C 9.894531 -9.53125 10.5625 -9.734375 11 -10.140625 C 11.445312 -10.554688 11.671875 -11.140625 11.671875 -11.890625 C 11.671875 -12.640625 11.453125 -13.226562 11.015625 -13.65625 C 10.585938 -14.082031 9.914062 -14.296875 9 -14.296875 L 5.796875 -14.296875 Z M 5.796875 -9.53125 "/></g></g></g><g fill="#003a47" fill-opacity="1"><g transform="translate(447.318022, 346.816519)"><g><path d="M 2.4375 0 C 2.269531 0 2.128906 -0.0546875 2.015625 -0.171875 C 1.898438 -0.285156 1.84375 -0.4375 1.84375 -0.625 L 1.84375 -16.796875 C 1.84375 -16.972656 1.898438 -17.117188 2.015625 -17.234375 C 2.128906 -17.347656 2.269531 -17.40625 2.4375 -17.40625 L 4.71875 -17.40625 C 4.96875 -17.40625 5.148438 -17.347656 5.265625 -17.234375 C 5.390625 -17.117188 5.46875 -17.03125 5.5 -16.96875 L 12.109375 -6.609375 L 12.109375 -16.796875 C 12.109375 -16.972656 12.164062 -17.117188 12.28125 -17.234375 C 12.40625 -17.347656 12.554688 -17.40625 12.734375 -17.40625 L 15.265625 -17.40625 C 15.453125 -17.40625 15.601562 -17.347656 15.71875 -17.234375 C 15.832031 -17.117188 15.890625 -16.972656 15.890625 -16.796875 L 15.890625 -0.625 C 15.890625 -0.457031 15.832031 -0.3125 15.71875 -0.1875 C 15.601562 -0.0625 15.453125 0 15.265625 0 L 12.984375 0 C 12.734375 0 12.550781 -0.0625 12.4375 -0.1875 C 12.320312 -0.3125 12.25 -0.398438 12.21875 -0.453125 L 5.625 -10.46875 L 5.625 -0.625 C 5.625 -0.4375 5.566406 -0.285156 5.453125 -0.171875 C 5.335938 -0.0546875 5.1875 0 5 0 Z M 2.4375 0 "/></g></g></g><g fill="#003a47" fill-opacity="1"><g transform="translate(475.001655, 346.816519)"><g><path d="M 2.4375 0 C 2.269531 0 2.128906 -0.0546875 2.015625 -0.171875 C 1.898438 -0.285156 1.84375 -0.4375 1.84375 -0.625 L 1.84375 -16.796875 C 1.84375 -16.972656 1.898438 -17.117188 2.015625 -17.234375 C 2.128906 -17.347656 2.269531 -17.40625 2.4375 -17.40625 L 5.296875 -17.40625 C 5.460938 -17.40625 5.601562 -17.347656 5.71875 -17.234375 C 5.832031 -17.117188 5.890625 -16.972656 5.890625 -16.796875 L 5.890625 -0.625 C 5.890625 -0.4375 5.832031 -0.285156 5.71875 -0.171875 C 5.601562 -0.0546875 5.460938 0 5.296875 0 Z M 2.4375 0 "/></g></g></g><g fill="#003a47" fill-opacity="1"><g transform="translate(492.686727, 346.816519)"><g><path d="M 2.4375 0 C 2.269531 0 2.128906 -0.0546875 2.015625 -0.171875 C 1.898438 -0.285156 1.84375 -0.4375 1.84375 -0.625 L 1.84375 -16.796875 C 1.84375 -16.972656 1.898438 -17.117188 2.015625 -17.234375 C 2.128906 -17.347656 2.269531 -17.40625 2.4375 -17.40625 L 4.71875 -17.40625 C 4.96875 -17.40625 5.148438 -17.347656 5.265625 -17.234375 C 5.390625 -17.117188 5.46875 -17.03125 5.5 -16.96875 L 12.109375 -6.609375 L 12.109375 -16.796875 C 12.109375 -16.972656 12.164062 -17.117188 12.28125 -17.234375 C 12.40625 -17.347656 12.554688 -17.40625 12.734375 -17.40625 L 15.265625 -17.40625 C 15.453125 -17.40625 15.601562 -17.347656 15.71875 -17.234375 C 15.832031 -17.117188 15.890625 -16.972656 15.890625 -16.796875 L 15.890625 -0.625 C 15.890625 -0.457031 15.832031 -0.3125 15.71875 -0.1875 C 15.601562 -0.0625 15.453125 0 15.265625 0 L 12.984375 0 C 12.734375 0 12.550781 -0.0625 12.4375 -0.1875 C 12.320312 -0.3125 12.25 -0.398438 12.21875 -0.453125 L 5.625 -10.46875 L 5.625 -0.625 C 5.625 -0.4375 5.566406 -0.285156 5.453125 -0.171875 C 5.335938 -0.0546875 5.1875 0 5 0 Z M 2.4375 0 "/></g></g></g><g fill="#003a47" fill-opacity="1"><g transform="translate(520.370361, 346.816519)"><g><path d="M 8.828125 0.25 C 7.273438 0.25 5.945312 -0.0078125 4.84375 -0.53125 C 3.738281 -1.050781 2.882812 -1.8125 2.28125 -2.8125 C 1.675781 -3.820312 1.347656 -5.039062 1.296875 -6.46875 C 1.273438 -7.175781 1.265625 -7.9375 1.265625 -8.75 C 1.265625 -9.5625 1.273438 -10.332031 1.296875 -11.0625 C 1.347656 -12.457031 1.675781 -13.644531 2.28125 -14.625 C 2.882812 -15.601562 3.742188 -16.351562 4.859375 -16.875 C 5.984375 -17.394531 7.304688 -17.65625 8.828125 -17.65625 C 10.054688 -17.65625 11.132812 -17.5 12.0625 -17.1875 C 12.988281 -16.875 13.769531 -16.460938 14.40625 -15.953125 C 15.050781 -15.453125 15.535156 -14.898438 15.859375 -14.296875 C 16.179688 -13.703125 16.351562 -13.125 16.375 -12.5625 C 16.375 -12.414062 16.320312 -12.289062 16.21875 -12.1875 C 16.113281 -12.09375 15.984375 -12.046875 15.828125 -12.046875 L 12.734375 -12.046875 C 12.566406 -12.046875 12.4375 -12.078125 12.34375 -12.140625 C 12.257812 -12.203125 12.179688 -12.300781 12.109375 -12.4375 C 11.992188 -12.71875 11.804688 -13.015625 11.546875 -13.328125 C 11.296875 -13.648438 10.953125 -13.910156 10.515625 -14.109375 C 10.085938 -14.316406 9.523438 -14.421875 8.828125 -14.421875 C 7.785156 -14.421875 6.960938 -14.144531 6.359375 -13.59375 C 5.753906 -13.050781 5.425781 -12.164062 5.375 -10.9375 C 5.320312 -9.519531 5.320312 -8.070312 5.375 -6.59375 C 5.425781 -5.3125 5.765625 -4.390625 6.390625 -3.828125 C 7.023438 -3.265625 7.851562 -2.984375 8.875 -2.984375 C 9.5625 -2.984375 10.171875 -3.101562 10.703125 -3.34375 C 11.242188 -3.582031 11.671875 -3.953125 11.984375 -4.453125 C 12.304688 -4.960938 12.46875 -5.617188 12.46875 -6.421875 L 12.46875 -7.046875 L 9.75 -7.046875 C 9.582031 -7.046875 9.441406 -7.101562 9.328125 -7.21875 C 9.210938 -7.34375 9.15625 -7.488281 9.15625 -7.65625 L 9.15625 -9.25 C 9.15625 -9.4375 9.210938 -9.585938 9.328125 -9.703125 C 9.441406 -9.816406 9.582031 -9.875 9.75 -9.875 L 15.875 -9.875 C 16.050781 -9.875 16.195312 -9.816406 16.3125 -9.703125 C 16.425781 -9.585938 16.484375 -9.4375 16.484375 -9.25 L 16.484375 -6.546875 C 16.484375 -5.117188 16.171875 -3.898438 15.546875 -2.890625 C 14.921875 -1.878906 14.03125 -1.101562 12.875 -0.5625 C 11.71875 -0.0195312 10.367188 0.25 8.828125 0.25 Z M 8.828125 0.25 "/></g></g></g><g fill="#003a47" fill-opacity="1"><g transform="translate(547.979368, 346.816519)"><g><path d="M 2.09375 -5.84375 C 1.925781 -5.84375 1.785156 -5.898438 1.671875 -6.015625 C 1.554688 -6.128906 1.5 -6.28125 1.5 -6.46875 L 1.5 -8.453125 C 1.5 -8.640625 1.554688 -8.789062 1.671875 -8.90625 C 1.785156 -9.019531 1.925781 -9.078125 2.09375 -9.078125 L 9.828125 -9.078125 C 9.992188 -9.078125 10.132812 -9.019531 10.25 -8.90625 C 10.363281 -8.789062 10.421875 -8.640625 10.421875 -8.453125 L 10.421875 -6.46875 C 10.421875 -6.28125 10.363281 -6.128906 10.25 -6.015625 C 10.132812 -5.898438 9.992188 -5.84375 9.828125 -5.84375 Z M 2.09375 -5.84375 "/></g></g></g><g fill="#003a47" fill-opacity="1"><g transform="translate(569.842932, 346.816519)"><g><path d="M 6.296875 0 C 6.109375 0 5.957031 -0.0546875 5.84375 -0.171875 C 5.726562 -0.285156 5.671875 -0.4375 5.671875 -0.625 L 5.671875 -13.9375 L 1.140625 -13.9375 C 0.972656 -13.9375 0.832031 -13.992188 0.71875 -14.109375 C 0.601562 -14.222656 0.546875 -14.367188 0.546875 -14.546875 L 0.546875 -16.796875 C 0.546875 -16.972656 0.601562 -17.117188 0.71875 -17.234375 C 0.832031 -17.347656 0.972656 -17.40625 1.140625 -17.40625 L 14.171875 -17.40625 C 14.359375 -17.40625 14.507812 -17.347656 14.625 -17.234375 C 14.738281 -17.117188 14.796875 -16.972656 14.796875 -16.796875 L 14.796875 -14.546875 C 14.796875 -14.367188 14.738281 -14.222656 14.625 -14.109375 C 14.507812 -13.992188 14.359375 -13.9375 14.171875 -13.9375 L 9.671875 -13.9375 L 9.671875 -0.625 C 9.671875 -0.4375 9.613281 -0.285156 9.5 -0.171875 C 9.382812 -0.0546875 9.234375 0 9.046875 0 Z M 6.296875 0 "/></g></g></g><g fill="#003a47" fill-opacity="1"><g transform="translate(595.138836, 346.816519)"><g><path d="M 2.4375 0 C 2.269531 0 2.128906 -0.0546875 2.015625 -0.171875 C 1.898438 -0.285156 1.84375 -0.4375 1.84375 -0.625 L 1.84375 -16.796875 C 1.84375 -16.972656 1.898438 -17.117188 2.015625 -17.234375 C 2.128906 -17.347656 2.269531 -17.40625 2.4375 -17.40625 L 13.734375 -17.40625 C 13.910156 -17.40625 14.054688 -17.347656 14.171875 -17.234375 C 14.296875 -17.117188 14.359375 -16.972656 14.359375 -16.796875 L 14.359375 -14.796875 C 14.359375 -14.617188 14.296875 -14.46875 14.171875 -14.34375 C 14.054688 -14.226562 13.910156 -14.171875 13.734375 -14.171875 L 5.671875 -14.171875 L 5.671875 -10.296875 L 13.1875 -10.296875 C 13.363281 -10.296875 13.507812 -10.238281 13.625 -10.125 C 13.75 -10.007812 13.8125 -9.859375 13.8125 -9.671875 L 13.8125 -7.828125 C 13.8125 -7.671875 13.75 -7.53125 13.625 -7.40625 C 13.507812 -7.28125 13.363281 -7.21875 13.1875 -7.21875 L 5.671875 -7.21875 L 5.671875 -3.234375 L 13.9375 -3.234375 C 14.113281 -3.234375 14.257812 -3.175781 14.375 -3.0625 C 14.488281 -2.945312 14.546875 -2.796875 14.546875 -2.609375 L 14.546875 -0.625 C 14.546875 -0.4375 14.488281 -0.285156 14.375 -0.171875 C 14.257812 -0.0546875 14.113281 0 13.9375 0 Z M 2.4375 0 "/></g></g></g><g fill="#003a47" fill-opacity="1"><g transform="translate(620.782967, 346.816519)"><g><path d="M 0.828125 0 C 0.671875 0 0.539062 -0.0507812 0.4375 -0.15625 C 0.34375 -0.269531 0.296875 -0.390625 0.296875 -0.515625 C 0.296875 -0.597656 0.304688 -0.675781 0.328125 -0.75 L 6.25 -16.734375 C 6.289062 -16.921875 6.382812 -17.078125 6.53125 -17.203125 C 6.6875 -17.335938 6.894531 -17.40625 7.15625 -17.40625 L 10.34375 -17.40625 C 10.613281 -17.40625 10.820312 -17.335938 10.96875 -17.203125 C 11.113281 -17.078125 11.222656 -16.921875 11.296875 -16.734375 L 17.1875 -0.75 C 17.21875 -0.675781 17.234375 -0.597656 17.234375 -0.515625 C 17.234375 -0.390625 17.179688 -0.269531 17.078125 -0.15625 C 16.972656 -0.0507812 16.84375 0 16.6875 0 L 14.078125 0 C 13.847656 0 13.671875 -0.0546875 13.546875 -0.171875 C 13.429688 -0.285156 13.359375 -0.394531 13.328125 -0.5 L 12.265625 -3.28125 L 5.25 -3.28125 L 4.203125 -0.5 C 4.148438 -0.394531 4.070312 -0.285156 3.96875 -0.171875 C 3.863281 -0.0546875 3.6875 0 3.4375 0 Z M 6.1875 -6.5 L 11.3125 -6.5 L 8.75 -13.625 Z M 6.1875 -6.5 "/></g></g></g><g fill="#003a47" fill-opacity="1"><g transform="translate(648.242744, 346.816519)"><g><path d="M 2.46875 0 C 2.28125 0 2.128906 -0.0546875 2.015625 -0.171875 C 1.898438 -0.285156 1.84375 -0.4375 1.84375 -0.625 L 1.84375 -16.796875 C 1.84375 -16.972656 1.898438 -17.117188 2.015625 -17.234375 C 2.128906 -17.347656 2.28125 -17.40625 2.46875 -17.40625 L 4.796875 -17.40625 C 5.046875 -17.40625 5.234375 -17.335938 5.359375 -17.203125 C 5.484375 -17.078125 5.5625 -16.984375 5.59375 -16.921875 L 10.203125 -8.5 L 14.796875 -16.921875 C 14.828125 -16.984375 14.90625 -17.078125 15.03125 -17.203125 C 15.15625 -17.335938 15.34375 -17.40625 15.59375 -17.40625 L 17.90625 -17.40625 C 18.09375 -17.40625 18.242188 -17.347656 18.359375 -17.234375 C 18.472656 -17.117188 18.53125 -16.972656 18.53125 -16.796875 L 18.53125 -0.625 C 18.53125 -0.4375 18.472656 -0.285156 18.359375 -0.171875 C 18.242188 -0.0546875 18.09375 0 17.90625 0 L 15.375 0 C 15.207031 0 15.066406 -0.0546875 14.953125 -0.171875 C 14.835938 -0.285156 14.78125 -0.4375 14.78125 -0.625 L 14.78125 -10.640625 L 11.609375 -4.75 C 11.546875 -4.601562 11.445312 -4.46875 11.3125 -4.34375 C 11.1875 -4.226562 11.003906 -4.171875 10.765625 -4.171875 L 9.609375 -4.171875 C 9.390625 -4.171875 9.210938 -4.226562 9.078125 -4.34375 C 8.941406 -4.46875 8.832031 -4.601562 8.75 -4.75 L 5.625 -10.640625 L 5.625 -0.625 C 5.625 -0.4375 5.566406 -0.285156 5.453125 -0.171875 C 5.335938 -0.0546875 5.1875 0 5 0 Z M 2.46875 0 "/></g></g></g><path fill="#f7931e" d="M 210.710938 320.4375 C 210.320312 320.25 210.011719 319.96875 209.78125 319.605469 C 208.519531 319.765625 207.25 319.847656 205.976562 319.851562 C 204.441406 319.851562 202.914062 319.726562 201.394531 319.472656 C 202.253906 321.363281 203.363281 323.089844 204.726562 324.65625 C 206.085938 326.222656 207.640625 327.566406 209.390625 328.679688 C 212.796875 330.820312 214.882812 330.457031 218.9375 329.644531 C 217.183594 325.015625 215.519531 322.734375 210.710938 320.4375 Z M 210.710938 320.4375 " fill-opacity="1" fill-rule="nonzero"/><path fill="#088ab7" d="M 201.667969 389.757812 L 195.839844 389.757812 C 200.414062 397.164062 205.359375 403.625 212.625 405.792969 C 219.5 407.835938 229.933594 406.359375 233.90625 400.957031 C 237.878906 395.558594 238.25 385.34375 234.78125 379.476562 C 232.359375 381.144531 229.828125 382.621094 227.183594 383.902344 C 224.539062 385.1875 221.816406 386.265625 219.007812 387.136719 C 216.199219 388.007812 213.34375 388.664062 210.4375 389.105469 C 207.53125 389.542969 204.609375 389.761719 201.667969 389.757812 Z M 201.667969 389.757812 " fill-opacity="1" fill-rule="nonzero"/><path fill="#f7931e" d="M 200.363281 314.644531 C 208.394531 316.691406 218.25 313.929688 224.933594 307.835938 C 218.113281 304.859375 211.023438 302.828125 203.660156 301.742188 C 201.621094 305.804688 200.523438 310.105469 200.363281 314.644531 Z M 200.363281 314.644531 " fill-opacity="1" fill-rule="nonzero"/><path fill="#29abe2" d="M 220.28125 182.550781 C 220.003906 183.394531 219.695312 184.246094 219.355469 185.109375 C 219.1875 185.542969 218.910156 185.886719 218.523438 186.148438 C 218.140625 186.410156 217.714844 186.542969 217.25 186.542969 C 216.964844 186.542969 216.691406 186.492188 216.429688 186.386719 C 216.152344 186.273438 215.90625 186.113281 215.695312 185.902344 C 215.480469 185.691406 215.316406 185.449219 215.199219 185.175781 C 215.082031 184.902344 215.019531 184.617188 215.015625 184.316406 C 215.011719 184.019531 215.0625 183.730469 215.171875 183.453125 C 221.632812 167.074219 216.449219 156.128906 210.960938 149.835938 C 210.695312 149.53125 210.371094 149.308594 209.992188 149.167969 C 209.613281 149.03125 209.222656 148.992188 208.820312 149.054688 C 208.445312 149.105469 208.105469 149.246094 207.800781 149.472656 C 207.496094 149.703125 207.269531 149.992188 207.117188 150.339844 C 197.015625 173.636719 161.703125 178.976562 160.230469 179.191406 L 160.109375 179.191406 C 160.058594 179.195312 160.003906 179.195312 159.949219 179.191406 L 60.082031 179.191406 C 58.3125 179.191406 56.542969 179.28125 54.78125 179.457031 C 53.019531 179.632812 51.273438 179.894531 49.535156 180.238281 C 47.800781 180.585938 46.085938 181.015625 44.390625 181.53125 C 42.695312 182.046875 41.03125 182.644531 39.398438 183.320312 C 37.761719 184 36.164062 184.757812 34.601562 185.589844 C 33.042969 186.425781 31.527344 187.335938 30.054688 188.320312 C 28.582031 189.304688 27.164062 190.355469 25.792969 191.480469 C 24.425781 192.601562 23.117188 193.789062 21.863281 195.042969 C 20.613281 196.292969 19.425781 197.601562 18.300781 198.96875 C 17.179688 200.339844 16.125 201.757812 15.140625 203.230469 C 14.160156 204.699219 13.25 206.214844 12.414062 207.777344 C 11.582031 209.335938 10.824219 210.933594 10.144531 212.570312 C 9.46875 214.203125 8.871094 215.867188 8.359375 217.5625 C 7.84375 219.253906 7.414062 220.96875 7.066406 222.703125 C 6.71875 224.441406 6.460938 226.1875 6.285156 227.949219 C 6.109375 229.710938 6.023438 231.476562 6.023438 233.246094 L 6.023438 331.230469 C 6.023438 332.996094 6.113281 334.761719 6.289062 336.523438 C 6.464844 338.28125 6.726562 340.03125 7.074219 341.765625 C 7.417969 343.5 7.851562 345.210938 8.367188 346.902344 C 8.878906 348.597656 9.476562 350.257812 10.15625 351.894531 C 10.835938 353.527344 11.589844 355.125 12.425781 356.683594 C 13.261719 358.242188 14.171875 359.757812 15.152344 361.226562 C 16.136719 362.699219 17.191406 364.117188 18.316406 365.484375 C 19.4375 366.851562 20.625 368.160156 21.875 369.410156 C 23.128906 370.660156 24.4375 371.847656 25.804688 372.96875 C 27.171875 374.089844 28.59375 375.144531 30.066406 376.128906 C 31.535156 377.109375 33.050781 378.019531 34.613281 378.851562 C 36.171875 379.6875 37.769531 380.445312 39.40625 381.121094 C 41.039062 381.796875 42.703125 382.394531 44.398438 382.910156 C 46.089844 383.425781 47.804688 383.855469 49.539062 384.199219 C 51.277344 384.546875 53.023438 384.808594 54.785156 384.984375 C 56.546875 385.15625 58.3125 385.246094 60.082031 385.246094 L 91.5 385.246094 C 87.261719 377.433594 83.691406 369.324219 80.792969 360.921875 C 77.894531 352.515625 75.710938 343.933594 74.234375 335.167969 C 74.210938 334.882812 74.238281 334.605469 74.320312 334.332031 C 74.398438 334.058594 74.527344 333.8125 74.703125 333.585938 C 74.875 333.359375 75.085938 333.175781 75.328125 333.03125 C 75.574219 332.882812 75.835938 332.785156 76.117188 332.738281 C 76.398438 332.691406 76.675781 332.695312 76.957031 332.753906 C 77.234375 332.8125 77.492188 332.917969 77.730469 333.074219 C 77.972656 333.226562 78.171875 333.421875 78.339844 333.652344 C 78.503906 333.882812 78.625 334.136719 78.695312 334.410156 C 80.234375 343.554688 82.566406 352.492188 85.691406 361.222656 C 88.820312 369.953125 92.691406 378.339844 97.308594 386.382812 C 98.964844 389.289062 100.75 392.1875 102.605469 394.988281 C 107.214844 401.957031 113.679688 410.457031 122.792969 414.347656 C 130.621094 417.691406 141.746094 416.707031 146.808594 409.292969 C 150.140625 404.40625 150.316406 397.882812 150 391.5625 C 149.941406 390.261719 149.859375 388.96875 149.761719 387.671875 C 149.066406 378.128906 147.570312 368.71875 145.273438 359.429688 C 142.972656 350.144531 139.90625 341.121094 136.070312 332.359375 C 135.914062 332.078125 135.824219 331.78125 135.796875 331.460938 C 135.769531 331.144531 135.804688 330.835938 135.910156 330.53125 C 136.011719 330.230469 136.171875 329.960938 136.386719 329.726562 C 136.601562 329.492188 136.855469 329.3125 137.148438 329.183594 C 137.441406 329.054688 137.746094 328.992188 138.066406 328.992188 C 138.386719 328.996094 138.691406 329.058594 138.980469 329.191406 C 139.273438 329.320312 139.527344 329.503906 139.742188 329.738281 C 139.957031 329.976562 140.113281 330.246094 140.214844 330.546875 C 144.011719 339.222656 147.074219 348.148438 149.40625 357.328125 C 151.734375 366.507812 153.300781 375.8125 154.097656 385.246094 L 201.667969 385.246094 C 203.4375 385.246094 205.203125 385.15625 206.964844 384.984375 C 208.726562 384.808594 210.472656 384.546875 212.210938 384.199219 C 213.945312 383.855469 215.660156 383.425781 217.351562 382.910156 C 219.046875 382.394531 220.710938 381.796875 222.34375 381.121094 C 223.980469 380.445312 225.578125 379.6875 227.136719 378.851562 C 228.699219 378.019531 230.214844 377.109375 231.683594 376.128906 C 233.15625 375.144531 234.578125 374.089844 235.945312 372.96875 C 237.3125 371.847656 238.621094 370.660156 239.875 369.410156 C 241.125 368.160156 242.3125 366.851562 243.433594 365.484375 C 244.558594 364.117188 245.613281 362.699219 246.597656 361.226562 C 247.578125 359.757812 248.488281 358.242188 249.324219 356.683594 C 250.160156 355.125 250.914062 353.527344 251.59375 351.894531 C 252.273438 350.257812 252.871094 348.597656 253.382812 346.90625 C 253.898438 345.210938 254.332031 343.5 254.675781 341.765625 C 255.023438 340.03125 255.285156 338.28125 255.460938 336.523438 C 255.636719 334.761719 255.726562 332.996094 255.726562 331.230469 L 255.726562 233.246094 C 255.726562 209.484375 241.855469 189.714844 220.28125 182.550781 Z M 230.5 308.660156 C 228.546875 310.871094 226.339844 312.789062 223.871094 314.410156 C 221.40625 316.03125 218.769531 317.300781 215.960938 318.214844 C 220.632812 321.355469 222.257812 325.191406 224.113281 330.632812 C 224.21875 330.945312 224.253906 331.261719 224.21875 331.589844 C 224.183594 331.917969 224.085938 332.21875 223.917969 332.503906 C 223.75 332.785156 223.535156 333.023438 223.265625 333.210938 C 222.996094 333.398438 222.699219 333.523438 222.378906 333.582031 C 221.589844 333.730469 220.851562 333.878906 220.144531 334.019531 C 218.242188 334.472656 216.308594 334.734375 214.351562 334.804688 C 211.65625 334.785156 209.199219 334.019531 206.972656 332.503906 C 205.625 331.644531 204.367188 330.667969 203.199219 329.574219 C 202.035156 328.484375 200.976562 327.296875 200.027344 326.007812 C 199.078125 324.722656 198.253906 323.363281 197.558594 321.925781 C 196.859375 320.488281 196.296875 319 195.871094 317.457031 C 195.789062 317.105469 195.789062 316.75 195.871094 316.398438 C 195.871094 316.398438 195.871094 316.398438 195.871094 316.363281 C 195.820312 313.1875 196.183594 310.058594 196.96875 306.976562 C 197.75 303.898438 198.925781 300.972656 200.492188 298.207031 C 200.722656 297.804688 201.042969 297.5 201.457031 297.292969 C 201.871094 297.085938 202.304688 297.011719 202.765625 297.074219 C 212.226562 298.289062 221.242188 300.984375 229.820312 305.160156 C 229.972656 305.234375 230.117188 305.332031 230.25 305.441406 C 230.378906 305.550781 230.5 305.675781 230.601562 305.8125 C 230.707031 305.949219 230.792969 306.097656 230.863281 306.253906 C 230.933594 306.410156 230.988281 306.574219 231.019531 306.742188 C 231.054688 306.910156 231.066406 307.082031 231.0625 307.253906 C 231.054688 307.425781 231.03125 307.597656 230.988281 307.761719 C 230.945312 307.929688 230.882812 308.089844 230.800781 308.242188 C 230.722656 308.394531 230.625 308.535156 230.511719 308.664062 Z M 230.5 308.660156 " fill-opacity="1" fill-rule="nonzero"/><path fill="#29abe2" d="M 229.78125 305.152344 C 221.203125 300.976562 212.1875 298.28125 202.722656 297.066406 C 202.265625 297.007812 201.828125 297.082031 201.414062 297.289062 C 201 297.496094 200.679688 297.800781 200.453125 298.203125 C 198.886719 300.96875 197.710938 303.890625 196.929688 306.972656 C 196.144531 310.050781 195.777344 313.179688 195.832031 316.359375 C 195.832031 316.359375 195.832031 316.359375 195.832031 316.390625 C 195.746094 316.746094 195.746094 317.097656 195.832031 317.453125 C 196.257812 318.996094 196.820312 320.492188 197.523438 321.933594 C 198.222656 323.375 199.046875 324.738281 200 326.027344 C 200.953125 327.316406 202.015625 328.507812 203.1875 329.601562 C 204.359375 330.695312 205.617188 331.671875 206.972656 332.535156 C 209.199219 334.046875 211.65625 334.8125 214.351562 334.832031 C 216.296875 334.761719 218.222656 334.5 220.117188 334.046875 C 220.820312 333.90625 221.558594 333.757812 222.347656 333.613281 C 222.671875 333.550781 222.96875 333.425781 223.234375 333.238281 C 223.503906 333.050781 223.722656 332.816406 223.890625 332.53125 C 224.054688 332.25 224.15625 331.945312 224.191406 331.617188 C 224.226562 331.292969 224.191406 330.972656 224.085938 330.660156 C 222.230469 325.21875 220.605469 321.386719 215.933594 318.242188 C 218.746094 317.328125 221.390625 316.054688 223.863281 314.429688 C 226.332031 312.804688 228.546875 310.878906 230.5 308.660156 C 230.613281 308.527344 230.710938 308.386719 230.789062 308.234375 C 230.871094 308.082031 230.933594 307.921875 230.976562 307.757812 C 231.019531 307.589844 231.046875 307.421875 231.050781 307.25 C 231.054688 307.078125 231.042969 306.90625 231.007812 306.738281 C 230.976562 306.566406 230.921875 306.40625 230.851562 306.25 C 230.78125 306.089844 230.695312 305.945312 230.589844 305.804688 C 230.488281 305.667969 230.367188 305.546875 230.238281 305.433594 C 230.105469 305.324219 229.960938 305.230469 229.808594 305.152344 Z M 218.9375 329.644531 C 214.882812 330.457031 212.773438 330.820312 209.390625 328.679688 C 207.640625 327.566406 206.085938 326.226562 204.726562 324.660156 C 203.367188 323.097656 202.257812 321.371094 201.394531 319.484375 C 202.914062 319.738281 204.441406 319.863281 205.976562 319.863281 C 207.25 319.859375 208.519531 319.777344 209.78125 319.613281 C 210.011719 319.980469 210.320312 320.257812 210.710938 320.449219 C 215.519531 322.734375 217.183594 325.015625 218.9375 329.644531 Z M 200.363281 314.644531 C 200.527344 310.113281 201.625 305.824219 203.660156 301.769531 C 211.023438 302.859375 218.113281 304.890625 224.933594 307.863281 C 218.25 313.929688 208.394531 316.691406 200.363281 314.644531 Z M 200.363281 314.644531 " fill-opacity="1" fill-rule="nonzero"/><path fill="#088ab7" d="M 54.347656 179.519531 C 52.707031 179.695312 51.078125 179.949219 49.460938 180.273438 C 47.84375 180.601562 46.242188 181 44.664062 181.46875 C 43.082031 181.941406 41.527344 182.484375 39.992188 183.097656 C 38.460938 183.714844 36.960938 184.394531 35.492188 185.148438 C 34.023438 185.898438 32.59375 186.714844 31.199219 187.597656 C 29.804688 188.480469 28.453125 189.421875 27.144531 190.429688 C 25.839844 191.433594 24.578125 192.496094 23.367188 193.617188 C 22.15625 194.738281 21 195.914062 19.898438 197.140625 C 18.792969 198.363281 17.75 199.640625 16.761719 200.960938 C 15.777344 202.28125 14.851562 203.648438 13.992188 205.054688 C 13.128906 206.460938 12.332031 207.902344 11.601562 209.382812 C 10.875 210.859375 10.214844 212.371094 9.621094 213.910156 C 9.03125 215.449219 8.507812 217.011719 8.0625 218.601562 C 7.613281 220.1875 7.238281 221.789062 6.933594 223.414062 C 6.632812 225.035156 6.40625 226.664062 6.253906 228.308594 C 6.101562 229.949219 6.023438 231.59375 6.023438 233.246094 L 6.023438 331.230469 C 6.023438 332.996094 6.113281 334.761719 6.289062 336.523438 C 6.464844 338.28125 6.726562 340.03125 7.074219 341.765625 C 7.417969 343.5 7.851562 345.210938 8.367188 346.902344 C 8.878906 348.597656 9.476562 350.257812 10.15625 351.894531 C 10.835938 353.527344 11.589844 355.125 12.425781 356.683594 C 13.261719 358.242188 14.171875 359.757812 15.152344 361.226562 C 16.136719 362.699219 17.191406 364.117188 18.316406 365.484375 C 19.4375 366.851562 20.625 368.160156 21.875 369.410156 C 23.128906 370.660156 24.4375 371.847656 25.804688 372.96875 C 27.171875 374.089844 28.59375 375.144531 30.066406 376.128906 C 31.535156 377.109375 33.050781 378.019531 34.613281 378.851562 C 36.171875 379.6875 37.769531 380.445312 39.40625 381.121094 C 41.039062 381.796875 42.703125 382.394531 44.398438 382.910156 C 46.089844 383.425781 47.804688 383.855469 49.539062 384.199219 C 51.277344 384.546875 53.023438 384.808594 54.785156 384.984375 C 56.546875 385.15625 58.3125 385.246094 60.082031 385.246094 L 91.5 385.246094 C 87.261719 377.433594 83.691406 369.324219 80.792969 360.921875 C 77.894531 352.515625 75.710938 343.933594 74.234375 335.167969 C 25.390625 274.867188 54.3125 179.640625 54.347656 179.519531 Z M 54.347656 179.519531 " fill-opacity="1" fill-rule="nonzero"/><path fill="#088ab7" d="M 239.402344 369.851562 C 239.027344 369.929688 196.828125 379.160156 152.65625 373.3125 C 153.269531 377.28125 153.757812 381.253906 154.097656 385.226562 L 201.667969 385.226562 C 205.160156 385.226562 208.621094 384.894531 212.050781 384.222656 C 215.480469 383.550781 218.8125 382.558594 222.046875 381.242188 C 225.28125 379.921875 228.359375 378.304688 231.277344 376.386719 C 234.199219 374.472656 236.90625 372.292969 239.402344 369.851562 Z M 239.402344 369.851562 " fill-opacity="1" fill-rule="nonzero"/><path fill="#088ab7" d="M 150 391.539062 C 149.941406 390.242188 149.859375 388.945312 149.761719 387.648438 C 149.449219 383.351562 148.960938 379.085938 148.324219 374.847656 C 148.359375 376.429688 148.21875 377.992188 147.90625 379.542969 C 147.59375 381.089844 147.117188 382.589844 146.472656 384.03125 C 145.828125 385.476562 145.039062 386.832031 144.09375 388.101562 C 143.152344 389.371094 142.085938 390.523438 140.886719 391.558594 C 127.050781 403.195312 112.703125 391.785156 103.542969 380.628906 C 93.25 368.082031 85.257812 354.210938 79.558594 339.019531 C 82.890625 355.765625 88.808594 371.546875 97.308594 386.359375 C 98.964844 389.265625 100.75 392.164062 102.605469 394.96875 C 107.214844 401.933594 113.679688 410.433594 122.792969 414.324219 C 130.621094 417.667969 141.746094 416.6875 146.808594 409.269531 C 150.140625 404.402344 150.316406 397.878906 150 391.539062 Z M 150 391.539062 " fill-opacity="1" fill-rule="nonzero"/><path fill="#83dfff" d="M 255.726562 233.246094 C 255.726562 209.496094 241.859375 189.726562 220.304688 182.5625 C 220.023438 183.40625 219.714844 184.257812 219.378906 185.121094 C 219.222656 185.511719 218.976562 185.832031 218.640625 186.085938 C 218.304688 186.335938 217.925781 186.484375 217.507812 186.523438 C 236.890625 196.554688 251 215.804688 255.726562 237.015625 Z M 255.726562 233.246094 " fill-opacity="1" fill-rule="nonzero"/><path fill="#83dfff" d="M 210.960938 149.839844 C 210.695312 149.535156 210.371094 149.3125 209.992188 149.175781 C 209.613281 149.035156 209.222656 148.996094 208.820312 149.058594 C 208.445312 149.109375 208.105469 149.25 207.800781 149.480469 C 207.496094 149.710938 207.269531 149.996094 207.117188 150.347656 C 205.675781 153.621094 203.765625 156.597656 201.390625 159.277344 C 202.328125 158.871094 203.3125 158.6875 204.332031 158.730469 C 205.355469 158.773438 206.320312 159.035156 207.21875 159.519531 C 209.910156 161.007812 211.507812 163.894531 212.613281 166.761719 C 214.378906 171.300781 215.269531 176.167969 216.019531 181.007812 C 221.101562 165.972656 216.171875 155.808594 210.960938 149.839844 Z M 210.960938 149.839844 " fill-opacity="1" fill-rule="nonzero"/><g clip-path="url(#f7c67c2484)"><path fill="#002b35" d="M 222.621094 177.601562 C 225.988281 162.039062 219.625 151.503906 215.054688 146.273438 C 214.625 145.777344 214.136719 145.339844 213.597656 144.96875 C 213.054688 144.59375 212.476562 144.296875 211.859375 144.070312 C 211.238281 143.84375 210.601562 143.699219 209.949219 143.636719 C 209.292969 143.574219 208.640625 143.59375 207.992188 143.695312 C 207.355469 143.792969 206.742188 143.96875 206.148438 144.21875 C 205.558594 144.472656 205.007812 144.792969 204.496094 145.1875 C 203.988281 145.578125 203.535156 146.03125 203.136719 146.539062 C 202.742188 147.046875 202.417969 147.59375 202.164062 148.183594 C 193.621094 167.871094 162.425781 173.34375 159.683594 173.789062 L 60.082031 173.789062 C 58.132812 173.792969 56.191406 173.890625 54.253906 174.082031 C 52.3125 174.273438 50.390625 174.5625 48.480469 174.941406 C 46.570312 175.324219 44.683594 175.796875 42.820312 176.363281 C 40.957031 176.929688 39.125 177.585938 37.328125 178.332031 C 35.527344 179.078125 33.769531 179.910156 32.050781 180.828125 C 30.335938 181.746094 28.667969 182.746094 27.046875 183.828125 C 25.429688 184.910156 23.867188 186.070312 22.359375 187.304688 C 20.855469 188.539062 19.414062 189.84375 18.035156 191.222656 C 16.660156 192.597656 15.351562 194.039062 14.117188 195.542969 C 12.882812 197.046875 11.722656 198.609375 10.640625 200.226562 C 9.558594 201.847656 8.554688 203.515625 7.636719 205.230469 C 6.71875 206.945312 5.886719 208.703125 5.140625 210.5 C 4.394531 212.300781 3.738281 214.128906 3.171875 215.992188 C 2.605469 217.855469 2.128906 219.742188 1.75 221.648438 C 1.367188 223.558594 1.082031 225.480469 0.886719 227.417969 C 0.695312 229.355469 0.597656 231.296875 0.59375 233.246094 L 0.59375 331.230469 C 0.597656 333.175781 0.695312 335.117188 0.890625 337.054688 C 1.082031 338.988281 1.371094 340.910156 1.753906 342.820312 C 2.132812 344.730469 2.609375 346.613281 3.175781 348.476562 C 3.742188 350.335938 4.398438 352.167969 5.148438 353.964844 C 5.894531 355.761719 6.726562 357.519531 7.644531 359.234375 C 8.5625 360.949219 9.566406 362.617188 10.648438 364.234375 C 11.730469 365.851562 12.890625 367.414062 14.125 368.917969 C 15.359375 370.421875 16.667969 371.859375 18.042969 373.238281 C 19.421875 374.613281 20.863281 375.917969 22.367188 377.152344 C 23.875 378.386719 25.4375 379.546875 27.054688 380.625 C 28.671875 381.707031 30.339844 382.707031 32.058594 383.625 C 33.777344 384.542969 35.535156 385.375 37.332031 386.121094 C 39.128906 386.867188 40.960938 387.523438 42.824219 388.085938 C 44.6875 388.652344 46.574219 389.128906 48.484375 389.507812 C 50.394531 389.890625 52.316406 390.175781 54.253906 390.367188 C 56.191406 390.5625 58.132812 390.660156 60.082031 390.660156 L 93.515625 390.660156 C 94.964844 393.132812 96.496094 395.585938 98.058594 397.972656 C 103.085938 405.578125 110.199219 414.871094 120.640625 419.328125 C 124.289062 420.851562 128.089844 421.609375 132.042969 421.597656 C 139.371094 421.597656 146.804688 418.859375 151.277344 412.335938 C 155.511719 406.121094 155.765625 398.542969 155.410156 391.285156 L 155.375 390.648438 L 190.003906 390.648438 C 195.300781 399.449219 201.355469 408.089844 211.046875 410.976562 C 213.691406 411.746094 216.390625 412.121094 219.140625 412.113281 C 226.453125 412.113281 234.246094 409.621094 238.25 404.167969 C 243.472656 397.070312 243.984375 384.726562 239.570312 376.964844 C 241.253906 375.578125 242.851562 374.101562 244.371094 372.539062 C 245.890625 370.972656 247.320312 369.332031 248.65625 367.609375 C 249.996094 365.890625 251.234375 364.101562 252.375 362.242188 C 253.515625 360.386719 254.550781 358.472656 255.480469 356.5 C 256.410156 354.527344 257.226562 352.511719 257.933594 350.453125 C 258.640625 348.390625 259.234375 346.296875 259.710938 344.167969 C 260.1875 342.042969 260.542969 339.894531 260.785156 337.730469 C 261.023438 335.5625 261.144531 333.390625 261.144531 331.210938 L 261.144531 233.246094 C 261.15625 207.316406 246.089844 185.675781 222.621094 177.601562 Z M 233.175781 400.425781 C 229.535156 405.371094 219.460938 406.882812 212.878906 404.925781 C 206.300781 402.96875 201.714844 397.320312 197.472656 390.660156 L 201.667969 390.660156 C 207.503906 390.664062 213.21875 389.824219 218.804688 388.136719 C 224.390625 386.453125 229.617188 383.992188 234.472656 380.761719 C 237.210938 386.433594 236.746094 395.601562 233.175781 400.425781 Z M 201.667969 384.335938 L 154.925781 384.335938 C 153.242188 365.527344 148.613281 347.472656 141.042969 330.171875 C 140.882812 329.777344 140.652344 329.425781 140.347656 329.121094 C 140.046875 328.816406 139.699219 328.585938 139.300781 328.421875 C 138.90625 328.261719 138.492188 328.183594 138.0625 328.1875 C 137.636719 328.191406 137.226562 328.28125 136.832031 328.453125 C 136.441406 328.625 136.097656 328.867188 135.800781 329.175781 C 135.507812 329.488281 135.285156 329.84375 135.136719 330.246094 C 134.984375 330.644531 134.917969 331.058594 134.9375 331.488281 C 134.957031 331.914062 135.058594 332.324219 135.242188 332.710938 C 139.058594 341.429688 142.113281 350.40625 144.402344 359.644531 C 146.6875 368.886719 148.175781 378.25 148.863281 387.746094 C 148.960938 389.039062 149.039062 390.320312 149.101562 391.613281 C 149.410156 397.777344 149.25 404.125 146.070312 408.789062 C 141.269531 415.824219 130.648438 416.730469 123.15625 413.519531 C 114.253906 409.695312 107.882812 401.351562 103.34375 394.484375 C 101.5 391.699219 99.726562 388.8125 98.074219 385.929688 C 93.488281 377.929688 89.640625 369.585938 86.535156 360.902344 C 83.429688 352.21875 81.113281 343.332031 79.585938 334.234375 C 79.527344 333.8125 79.390625 333.414062 79.171875 333.046875 C 78.953125 332.679688 78.671875 332.367188 78.324219 332.113281 C 77.980469 331.859375 77.597656 331.683594 77.183594 331.582031 C 76.765625 331.484375 76.34375 331.46875 75.921875 331.539062 C 75.5 331.613281 75.105469 331.761719 74.746094 331.992188 C 74.382812 332.222656 74.082031 332.515625 73.839844 332.867188 C 73.59375 333.21875 73.429688 333.605469 73.34375 334.027344 C 73.257812 334.445312 73.257812 334.867188 73.34375 335.285156 C 76.246094 352.527344 81.796875 368.871094 89.996094 384.316406 L 60.082031 384.316406 C 58.339844 384.316406 56.605469 384.230469 54.875 384.054688 C 53.140625 383.882812 51.421875 383.628906 49.714844 383.289062 C 48.011719 382.945312 46.324219 382.523438 44.660156 382.019531 C 42.996094 381.511719 41.359375 380.925781 39.75 380.257812 C 38.144531 379.59375 36.574219 378.851562 35.039062 378.027344 C 33.503906 377.207031 32.011719 376.316406 30.566406 375.347656 C 29.121094 374.382812 27.722656 373.347656 26.378906 372.242188 C 25.03125 371.140625 23.746094 369.972656 22.515625 368.742188 C 21.285156 367.515625 20.117188 366.226562 19.011719 364.882812 C 17.90625 363.539062 16.871094 362.144531 15.90625 360.699219 C 14.9375 359.253906 14.042969 357.761719 13.222656 356.230469 C 12.402344 354.695312 11.65625 353.125 10.988281 351.519531 C 10.324219 349.914062 9.734375 348.277344 9.230469 346.613281 C 8.722656 344.949219 8.296875 343.265625 7.957031 341.558594 C 7.617188 339.855469 7.359375 338.136719 7.1875 336.40625 C 7.015625 334.675781 6.925781 332.941406 6.925781 331.199219 L 6.925781 233.246094 C 6.925781 231.503906 7.015625 229.769531 7.1875 228.039062 C 7.359375 226.308594 7.617188 224.589844 7.957031 222.886719 C 8.296875 221.179688 8.722656 219.496094 9.230469 217.832031 C 9.734375 216.167969 10.324219 214.53125 10.988281 212.925781 C 11.65625 211.320312 12.402344 209.75 13.222656 208.214844 C 14.042969 206.683594 14.9375 205.191406 15.90625 203.746094 C 16.871094 202.300781 17.90625 200.90625 19.011719 199.5625 C 20.117188 198.21875 21.285156 196.929688 22.515625 195.699219 C 23.746094 194.472656 25.03125 193.304688 26.378906 192.203125 C 27.722656 191.097656 29.121094 190.0625 30.566406 189.097656 C 32.011719 188.128906 33.503906 187.234375 35.039062 186.414062 C 36.574219 185.59375 38.144531 184.851562 39.75 184.1875 C 41.359375 183.519531 42.996094 182.933594 44.660156 182.425781 C 46.324219 181.921875 48.011719 181.5 49.714844 181.15625 C 51.421875 180.816406 53.140625 180.558594 54.875 180.386719 C 56.605469 180.214844 58.339844 180.128906 60.082031 180.128906 L 159.929688 180.128906 C 160.007812 180.128906 160.082031 180.128906 160.160156 180.128906 C 160.242188 180.128906 160.308594 180.128906 160.382812 180.128906 C 161.898438 179.910156 197.667969 174.5 207.96875 150.75 C 208.15625 150.308594 208.488281 150.054688 208.964844 149.996094 C 209.492188 149.910156 209.933594 150.070312 210.28125 150.476562 C 215.605469 156.582031 220.625 167.207031 214.332031 183.167969 C 214.179688 183.558594 214.105469 183.964844 214.113281 184.382812 C 214.121094 184.800781 214.207031 185.203125 214.375 185.589844 C 214.539062 185.972656 214.777344 186.3125 215.078125 186.601562 C 215.378906 186.894531 215.726562 187.117188 216.117188 187.269531 C 216.480469 187.417969 216.859375 187.492188 217.25 187.492188 C 217.902344 187.492188 218.496094 187.308594 219.035156 186.945312 C 219.570312 186.578125 219.960938 186.09375 220.199219 185.488281 C 220.429688 184.921875 220.652344 184.316406 220.855469 183.742188 C 239.828125 190.410156 252.542969 207.140625 254.523438 227.640625 C 252.683594 226.222656 250.667969 225.117188 248.484375 224.320312 C 245.925781 223.417969 243.289062 222.988281 240.574219 223.027344 C 237.859375 223.0625 235.238281 223.566406 232.703125 224.535156 C 232.335938 224.707031 232.015625 224.941406 231.742188 225.234375 C 231.464844 225.527344 231.25 225.863281 231.101562 226.238281 C 230.953125 226.613281 230.882812 227 230.882812 227.40625 C 230.882812 227.808594 230.957031 228.199219 231.105469 228.570312 C 231.253906 228.945312 231.46875 229.28125 231.746094 229.574219 C 232.023438 229.867188 232.34375 230.097656 232.710938 230.269531 C 233.074219 230.441406 233.460938 230.539062 233.863281 230.5625 C 234.265625 230.585938 234.660156 230.535156 235.042969 230.40625 C 235.929688 230.0625 236.835938 229.796875 237.769531 229.609375 C 238.703125 229.425781 239.644531 229.324219 240.597656 229.304688 C 241.546875 229.285156 242.492188 229.347656 243.433594 229.496094 C 244.371094 229.644531 245.292969 229.871094 246.191406 230.179688 C 247.089844 230.488281 247.957031 230.875 248.789062 231.335938 C 249.621094 231.796875 250.40625 232.328125 251.144531 232.929688 C 251.878906 233.53125 252.558594 234.191406 253.179688 234.910156 C 253.800781 235.628906 254.355469 236.398438 254.84375 237.214844 L 254.84375 331.21875 C 254.839844 332.957031 254.753906 334.691406 254.582031 336.421875 C 254.40625 338.15625 254.152344 339.875 253.808594 341.578125 C 253.46875 343.285156 253.042969 344.96875 252.539062 346.632812 C 252.03125 348.300781 251.445312 349.933594 250.777344 351.542969 C 250.109375 353.148438 249.367188 354.71875 248.542969 356.253906 C 247.722656 357.785156 246.828125 359.277344 245.859375 360.722656 C 244.894531 362.167969 243.855469 363.5625 242.75 364.90625 C 241.648438 366.25 240.480469 367.539062 239.246094 368.769531 C 238.015625 370 236.726562 371.164062 235.382812 372.269531 C 234.039062 373.371094 232.640625 374.40625 231.191406 375.375 C 229.746094 376.339844 228.253906 377.234375 226.71875 378.054688 C 225.183594 378.875 223.613281 379.617188 222.003906 380.28125 C 220.398438 380.949219 218.761719 381.535156 217.09375 382.039062 C 215.429688 382.546875 213.742188 382.96875 212.035156 383.308594 C 210.328125 383.648438 208.609375 383.902344 206.878906 384.074219 C 205.144531 384.246094 203.410156 384.332031 201.667969 384.335938 Z M 201.667969 384.335938 " fill-opacity="1" fill-rule="nonzero"/></g><path fill="#002b35" d="M 189.984375 273.941406 C 189.984375 274.660156 189.949219 275.378906 189.878906 276.097656 C 189.808594 276.8125 189.703125 277.527344 189.5625 278.230469 C 189.421875 278.9375 189.246094 279.636719 189.039062 280.324219 C 188.828125 281.015625 188.585938 281.691406 188.3125 282.355469 C 188.035156 283.023438 187.726562 283.671875 187.386719 284.308594 C 187.046875 284.945312 186.679688 285.558594 186.277344 286.160156 C 185.878906 286.757812 185.449219 287.335938 184.992188 287.894531 C 184.535156 288.449219 184.050781 288.984375 183.542969 289.492188 C 183.03125 290 182.5 290.484375 181.941406 290.941406 C 181.382812 291.398438 180.804688 291.828125 180.207031 292.226562 C 179.609375 292.625 178.992188 292.996094 178.355469 293.335938 C 177.71875 293.675781 177.070312 293.984375 176.402344 294.257812 C 175.738281 294.535156 175.058594 294.777344 174.371094 294.984375 C 173.679688 295.195312 172.984375 295.371094 172.277344 295.511719 C 171.570312 295.652344 170.855469 295.757812 170.140625 295.828125 C 169.421875 295.898438 168.703125 295.933594 167.984375 295.933594 C 167.261719 295.933594 166.542969 295.898438 165.828125 295.828125 C 165.109375 295.757812 164.398438 295.652344 163.691406 295.511719 C 162.984375 295.371094 162.285156 295.195312 161.597656 294.984375 C 160.90625 294.777344 160.230469 294.535156 159.5625 294.257812 C 158.898438 293.984375 158.246094 293.675781 157.609375 293.335938 C 156.976562 292.996094 156.359375 292.625 155.757812 292.226562 C 155.160156 291.828125 154.582031 291.398438 154.023438 290.941406 C 153.46875 290.484375 152.933594 290 152.425781 289.492188 C 151.914062 288.984375 151.433594 288.449219 150.976562 287.894531 C 150.519531 287.335938 150.089844 286.757812 149.6875 286.160156 C 149.289062 285.558594 148.917969 284.945312 148.578125 284.308594 C 148.238281 283.671875 147.929688 283.023438 147.65625 282.355469 C 147.378906 281.691406 147.136719 281.015625 146.929688 280.324219 C 146.71875 279.636719 146.542969 278.9375 146.402344 278.230469 C 146.261719 277.527344 146.15625 276.8125 146.085938 276.097656 C 146.015625 275.378906 145.980469 274.660156 145.980469 273.941406 C 145.980469 273.222656 146.015625 272.503906 146.085938 271.785156 C 146.15625 271.070312 146.261719 270.359375 146.402344 269.652344 C 146.542969 268.945312 146.71875 268.246094 146.929688 267.558594 C 147.136719 266.867188 147.378906 266.191406 147.65625 265.527344 C 147.929688 264.859375 148.238281 264.210938 148.578125 263.574219 C 148.917969 262.941406 149.289062 262.324219 149.6875 261.722656 C 150.089844 261.125 150.519531 260.546875 150.976562 259.992188 C 151.433594 259.433594 151.914062 258.902344 152.425781 258.390625 C 152.933594 257.882812 153.46875 257.398438 154.023438 256.941406 C 154.582031 256.484375 155.160156 256.058594 155.757812 255.65625 C 156.359375 255.257812 156.976562 254.886719 157.609375 254.546875 C 158.246094 254.207031 158.898438 253.898438 159.5625 253.625 C 160.230469 253.347656 160.90625 253.105469 161.597656 252.898438 C 162.285156 252.6875 162.984375 252.515625 163.691406 252.375 C 164.398438 252.234375 165.109375 252.128906 165.828125 252.054688 C 166.542969 251.984375 167.261719 251.949219 167.984375 251.949219 C 168.703125 251.949219 169.421875 251.984375 170.140625 252.054688 C 170.855469 252.128906 171.570312 252.234375 172.277344 252.375 C 172.984375 252.515625 173.679688 252.6875 174.371094 252.898438 C 175.058594 253.105469 175.738281 253.347656 176.402344 253.625 C 177.070312 253.898438 177.71875 254.207031 178.355469 254.546875 C 178.992188 254.886719 179.609375 255.257812 180.207031 255.65625 C 180.804688 256.058594 181.382812 256.484375 181.941406 256.941406 C 182.5 257.398438 183.03125 257.882812 183.542969 258.390625 C 184.050781 258.902344 184.535156 259.433594 184.992188 259.992188 C 185.449219 260.546875 185.878906 261.125 186.277344 261.722656 C 186.679688 262.324219 187.046875 262.941406 187.386719 263.574219 C 187.726562 264.210938 188.035156 264.859375 188.3125 265.527344 C 188.585938 266.191406 188.828125 266.867188 189.039062 267.558594 C 189.246094 268.246094 189.421875 268.945312 189.5625 269.652344 C 189.703125 270.359375 189.808594 271.070312 189.878906 271.785156 C 189.949219 272.503906 189.984375 273.222656 189.984375 273.941406 Z M 189.984375 273.941406 " fill-opacity="1" fill-rule="nonzero"/><path fill="#002b35" d="M 252.640625 273.941406 C 252.640625 274.660156 252.605469 275.378906 252.535156 276.097656 C 252.464844 276.8125 252.355469 277.527344 252.214844 278.230469 C 252.074219 278.9375 251.902344 279.636719 251.691406 280.324219 C 251.484375 281.015625 251.242188 281.691406 250.964844 282.355469 C 250.6875 283.023438 250.382812 283.671875 250.042969 284.308594 C 249.703125 284.945312 249.332031 285.558594 248.929688 286.160156 C 248.53125 286.757812 248.101562 287.335938 247.644531 287.894531 C 247.1875 288.449219 246.703125 288.984375 246.195312 289.492188 C 245.683594 290 245.152344 290.484375 244.59375 290.941406 C 244.039062 291.398438 243.460938 291.828125 242.859375 292.226562 C 242.261719 292.625 241.644531 292.996094 241.007812 293.335938 C 240.375 293.675781 239.722656 293.984375 239.058594 294.257812 C 238.390625 294.535156 237.714844 294.777344 237.023438 294.984375 C 236.335938 295.195312 235.636719 295.371094 234.929688 295.511719 C 234.222656 295.652344 233.511719 295.757812 232.792969 295.828125 C 232.078125 295.898438 231.355469 295.933594 230.636719 295.933594 C 229.917969 295.933594 229.195312 295.898438 228.480469 295.828125 C 227.761719 295.757812 227.050781 295.652344 226.34375 295.511719 C 225.636719 295.371094 224.9375 295.195312 224.25 294.984375 C 223.558594 294.777344 222.882812 294.535156 222.214844 294.257812 C 221.550781 293.984375 220.898438 293.675781 220.265625 293.335938 C 219.628906 292.996094 219.011719 292.625 218.414062 292.226562 C 217.8125 291.828125 217.234375 291.398438 216.679688 290.941406 C 216.121094 290.484375 215.589844 290 215.078125 289.492188 C 214.570312 288.984375 214.085938 288.449219 213.628906 287.894531 C 213.171875 287.335938 212.742188 286.757812 212.34375 286.160156 C 211.941406 285.558594 211.570312 284.945312 211.230469 284.308594 C 210.890625 283.671875 210.585938 283.023438 210.308594 282.355469 C 210.03125 281.691406 209.789062 281.015625 209.582031 280.324219 C 209.371094 279.636719 209.199219 278.9375 209.058594 278.230469 C 208.917969 277.527344 208.808594 276.8125 208.738281 276.097656 C 208.667969 275.378906 208.632812 274.660156 208.632812 273.941406 C 208.632812 273.222656 208.667969 272.503906 208.738281 271.785156 C 208.808594 271.070312 208.917969 270.359375 209.058594 269.652344 C 209.199219 268.945312 209.371094 268.246094 209.582031 267.558594 C 209.789062 266.867188 210.03125 266.191406 210.308594 265.527344 C 210.585938 264.859375 210.890625 264.210938 211.230469 263.574219 C 211.570312 262.941406 211.941406 262.324219 212.34375 261.722656 C 212.742188 261.125 213.171875 260.546875 213.628906 259.992188 C 214.085938 259.433594 214.570312 258.902344 215.078125 258.390625 C 215.589844 257.882812 216.121094 257.398438 216.679688 256.941406 C 217.234375 256.484375 217.8125 256.058594 218.414062 255.65625 C 219.011719 255.257812 219.628906 254.886719 220.265625 254.546875 C 220.898438 254.207031 221.550781 253.898438 222.214844 253.625 C 222.882812 253.347656 223.558594 253.105469 224.25 252.898438 C 224.9375 252.6875 225.636719 252.515625 226.34375 252.375 C 227.050781 252.234375 227.761719 252.128906 228.480469 252.054688 C 229.195312 251.984375 229.917969 251.949219 230.636719 251.949219 C 231.355469 251.949219 232.078125 251.984375 232.792969 252.054688 C 233.511719 252.128906 234.222656 252.234375 234.929688 252.375 C 235.636719 252.515625 236.335938 252.6875 237.023438 252.898438 C 237.714844 253.105469 238.390625 253.347656 239.058594 253.625 C 239.722656 253.898438 240.375 254.207031 241.007812 254.546875 C 241.644531 254.886719 242.261719 255.257812 242.859375 255.65625 C 243.460938 256.058594 244.039062 256.484375 244.59375 256.941406 C 245.152344 257.398438 245.683594 257.882812 246.195312 258.390625 C 246.703125 258.902344 247.1875 259.433594 247.644531 259.992188 C 248.101562 260.546875 248.53125 261.125 248.929688 261.722656 C 249.332031 262.324219 249.703125 262.941406 250.042969 263.574219 C 250.382812 264.210938 250.6875 264.859375 250.964844 265.527344 C 251.242188 266.191406 251.484375 266.867188 251.691406 267.558594 C 251.902344 268.246094 252.074219 268.945312 252.214844 269.652344 C 252.355469 270.359375 252.464844 271.070312 252.535156 271.785156 C 252.605469 272.503906 252.640625 273.222656 252.640625 273.941406 Z M 252.640625 273.941406 " fill-opacity="1" fill-rule="nonzero"/><path fill="#002b35" d="M 230.183594 304.347656 C 221.519531 300.125 212.410156 297.398438 202.847656 296.171875 C 202.207031 296.082031 201.59375 296.179688 201.015625 296.46875 C 200.433594 296.757812 199.984375 297.183594 199.664062 297.75 C 198.0625 300.578125 196.859375 303.566406 196.054688 306.71875 C 195.25 309.867188 194.875 313.066406 194.925781 316.320312 C 194.839844 316.78125 194.855469 317.242188 194.976562 317.695312 C 195.417969 319.292969 196 320.835938 196.722656 322.324219 C 197.449219 323.808594 198.304688 325.21875 199.289062 326.550781 C 200.269531 327.882812 201.367188 329.113281 202.578125 330.242188 C 203.789062 331.371094 205.09375 332.382812 206.488281 333.269531 C 208.867188 334.878906 211.492188 335.691406 214.363281 335.707031 C 216.363281 335.636719 218.335938 335.371094 220.28125 334.90625 C 220.980469 334.761719 221.71875 334.617188 222.503906 334.472656 C 222.726562 334.433594 222.941406 334.367188 223.152344 334.28125 C 223.363281 334.195312 223.5625 334.085938 223.75 333.953125 C 223.933594 333.824219 224.105469 333.675781 224.261719 333.507812 C 224.414062 333.339844 224.550781 333.160156 224.664062 332.960938 C 224.78125 332.765625 224.875 332.558594 224.945312 332.34375 C 225.015625 332.128906 225.0625 331.90625 225.085938 331.679688 C 225.109375 331.453125 225.105469 331.226562 225.082031 331 C 225.054688 330.773438 225.003906 330.554688 224.933594 330.339844 C 223.230469 325.277344 221.671875 321.554688 217.839844 318.480469 C 223.039062 316.507812 227.476562 313.4375 231.160156 309.273438 C 231.316406 309.089844 231.453125 308.890625 231.566406 308.679688 C 231.679688 308.464844 231.765625 308.242188 231.828125 308.007812 C 231.890625 307.777344 231.925781 307.539062 231.933594 307.296875 C 231.941406 307.058594 231.921875 306.816406 231.875 306.582031 C 231.828125 306.34375 231.753906 306.117188 231.652344 305.898438 C 231.554688 305.675781 231.429688 305.472656 231.285156 305.28125 C 231.136719 305.085938 230.972656 304.914062 230.785156 304.761719 C 230.601562 304.609375 230.398438 304.476562 230.183594 304.371094 Z M 210.3125 321.253906 C 214.503906 323.257812 216.136719 325.175781 217.695312 328.964844 C 214.457031 329.589844 212.660156 329.679688 209.867188 327.914062 C 206.949219 326.054688 204.648438 323.609375 202.96875 320.585938 C 203.960938 320.691406 204.957031 320.75 205.953125 320.753906 C 207.09375 320.753906 208.230469 320.691406 209.359375 320.5625 C 209.636719 320.855469 209.960938 321.085938 210.324219 321.253906 Z M 201.292969 313.941406 C 201.53125 310.03125 202.488281 306.308594 204.171875 302.769531 C 210.746094 303.800781 217.105469 305.589844 223.25 308.136719 C 217.046875 313.179688 208.492188 315.511719 201.304688 313.941406 Z M 201.292969 313.941406 " fill-opacity="1" fill-rule="nonzero"/><path fill="#002b35" d="M 160.585938 230.40625 C 160.972656 230.53125 161.367188 230.578125 161.769531 230.554688 C 162.175781 230.527344 162.558594 230.425781 162.925781 230.25 C 163.289062 230.074219 163.609375 229.839844 163.882812 229.542969 C 164.160156 229.246094 164.367188 228.90625 164.515625 228.53125 C 164.660156 228.152344 164.730469 227.761719 164.726562 227.355469 C 164.71875 226.953125 164.640625 226.5625 164.488281 226.1875 C 164.332031 225.816406 164.113281 225.484375 163.832031 225.191406 C 163.550781 224.902344 163.226562 224.671875 162.855469 224.507812 C 161.601562 224.019531 160.316406 223.648438 158.992188 223.390625 C 157.671875 223.136719 156.339844 223 154.992188 222.980469 C 153.648438 222.964844 152.308594 223.066406 150.984375 223.285156 C 149.65625 223.507812 148.359375 223.847656 147.089844 224.300781 C 145.824219 224.753906 144.605469 225.316406 143.441406 225.988281 C 142.273438 226.65625 141.175781 227.425781 140.148438 228.296875 C 139.121094 229.164062 138.175781 230.113281 137.320312 231.152344 C 136.460938 232.1875 135.703125 233.292969 135.042969 234.464844 C 134.828125 234.832031 134.691406 235.222656 134.632812 235.644531 C 134.578125 236.066406 134.605469 236.480469 134.714844 236.890625 C 134.824219 237.300781 135.011719 237.671875 135.273438 238.007812 C 135.53125 238.34375 135.847656 238.617188 136.21875 238.824219 C 136.589844 239.03125 136.984375 239.160156 137.40625 239.210938 C 137.828125 239.261719 138.242188 239.226562 138.652344 239.109375 C 139.058594 238.992188 139.429688 238.800781 139.757812 238.53125 C 140.089844 238.265625 140.355469 237.945312 140.558594 237.574219 C 141.035156 236.730469 141.578125 235.933594 142.195312 235.1875 C 142.8125 234.4375 143.492188 233.753906 144.234375 233.128906 C 144.972656 232.503906 145.765625 231.949219 146.605469 231.464844 C 147.445312 230.980469 148.320312 230.574219 149.234375 230.25 C 150.144531 229.921875 151.078125 229.679688 152.035156 229.519531 C 152.992188 229.363281 153.953125 229.289062 154.925781 229.300781 C 155.894531 229.316406 156.855469 229.414062 157.804688 229.601562 C 158.757812 229.785156 159.683594 230.054688 160.585938 230.40625 Z M 160.585938 230.40625 " fill-opacity="1" fill-rule="nonzero"/><path fill="#ffffff" d="M 167.886719 271.742188 C 167.886719 272.296875 167.832031 272.84375 167.722656 273.386719 C 167.617188 273.933594 167.457031 274.460938 167.242188 274.972656 C 167.03125 275.484375 166.769531 275.972656 166.460938 276.433594 C 166.152344 276.894531 165.804688 277.320312 165.410156 277.714844 C 165.019531 278.105469 164.589844 278.457031 164.128906 278.765625 C 163.667969 279.074219 163.183594 279.332031 162.667969 279.546875 C 162.15625 279.757812 161.628906 279.917969 161.082031 280.027344 C 160.539062 280.132812 159.988281 280.1875 159.433594 280.1875 C 158.878906 280.1875 158.328125 280.132812 157.785156 280.027344 C 157.242188 279.917969 156.710938 279.757812 156.199219 279.546875 C 155.6875 279.332031 155.199219 279.074219 154.738281 278.765625 C 154.277344 278.457031 153.851562 278.105469 153.457031 277.714844 C 153.066406 277.320312 152.714844 276.894531 152.40625 276.433594 C 152.097656 275.972656 151.835938 275.484375 151.625 274.972656 C 151.414062 274.460938 151.253906 273.933594 151.144531 273.386719 C 151.035156 272.84375 150.980469 272.296875 150.980469 271.742188 C 150.980469 271.1875 151.035156 270.636719 151.144531 270.09375 C 151.253906 269.546875 151.414062 269.019531 151.625 268.507812 C 151.835938 267.996094 152.097656 267.507812 152.40625 267.046875 C 152.714844 266.585938 153.066406 266.160156 153.457031 265.765625 C 153.851562 265.375 154.277344 265.023438 154.738281 264.714844 C 155.199219 264.40625 155.6875 264.148438 156.199219 263.933594 C 156.710938 263.722656 157.242188 263.5625 157.785156 263.453125 C 158.328125 263.347656 158.878906 263.292969 159.433594 263.292969 C 159.988281 263.292969 160.539062 263.347656 161.082031 263.453125 C 161.628906 263.5625 162.15625 263.722656 162.667969 263.933594 C 163.183594 264.148438 163.667969 264.40625 164.128906 264.714844 C 164.589844 265.023438 165.019531 265.375 165.410156 265.765625 C 165.804688 266.160156 166.152344 266.585938 166.460938 267.046875 C 166.769531 267.507812 167.03125 267.996094 167.242188 268.507812 C 167.457031 269.019531 167.617188 269.546875 167.722656 270.09375 C 167.832031 270.636719 167.886719 271.1875 167.886719 271.742188 Z M 167.886719 271.742188 " fill-opacity="1" fill-rule="nonzero"/><path fill="#ffffff" d="M 230.464844 271.742188 C 230.464844 272.296875 230.414062 272.84375 230.304688 273.386719 C 230.195312 273.933594 230.035156 274.460938 229.824219 274.972656 C 229.609375 275.484375 229.351562 275.972656 229.042969 276.433594 C 228.734375 276.894531 228.382812 277.320312 227.992188 277.714844 C 227.597656 278.105469 227.171875 278.457031 226.710938 278.765625 C 226.25 279.074219 225.761719 279.332031 225.25 279.546875 C 224.734375 279.757812 224.207031 279.917969 223.664062 280.027344 C 223.117188 280.132812 222.570312 280.1875 222.015625 280.1875 C 221.457031 280.1875 220.910156 280.132812 220.363281 280.027344 C 219.820312 279.917969 219.292969 279.757812 218.777344 279.546875 C 218.265625 279.332031 217.78125 279.074219 217.316406 278.765625 C 216.855469 278.457031 216.429688 278.105469 216.035156 277.714844 C 215.644531 277.320312 215.292969 276.894531 214.984375 276.433594 C 214.675781 275.972656 214.417969 275.484375 214.203125 274.972656 C 213.992188 274.460938 213.832031 273.933594 213.722656 273.386719 C 213.617188 272.84375 213.5625 272.296875 213.5625 271.742188 C 213.5625 271.1875 213.617188 270.636719 213.722656 270.09375 C 213.832031 269.546875 213.992188 269.019531 214.203125 268.507812 C 214.417969 267.996094 214.675781 267.507812 214.984375 267.046875 C 215.292969 266.585938 215.644531 266.160156 216.035156 265.765625 C 216.429688 265.375 216.855469 265.023438 217.316406 264.714844 C 217.78125 264.40625 218.265625 264.148438 218.777344 263.933594 C 219.292969 263.722656 219.820312 263.5625 220.363281 263.453125 C 220.910156 263.347656 221.457031 263.292969 222.015625 263.292969 C 222.570312 263.292969 223.117188 263.347656 223.664062 263.453125 C 224.207031 263.5625 224.734375 263.722656 225.25 263.933594 C 225.761719 264.148438 226.25 264.40625 226.710938 264.714844 C 227.171875 265.023438 227.597656 265.375 227.992188 265.765625 C 228.382812 266.160156 228.734375 266.585938 229.042969 267.046875 C 229.351562 267.507812 229.609375 267.996094 229.824219 268.507812 C 230.035156 269.019531 230.195312 269.546875 230.304688 270.09375 C 230.414062 270.636719 230.464844 271.1875 230.464844 271.742188 Z M 230.464844 271.742188 " fill-opacity="1" fill-rule="nonzero"/></svg>