<svg xmlns="http://www.w3.org/2000/svg" xmlns:xlink="http://www.w3.org/1999/xlink" width="500" zoomAndPan="magnify" viewBox="0 0 375 374.999991" height="500" preserveAspectRatio="xMidYMid meet" version="1.0"><defs><g/></defs><g fill="#ffffff" fill-opacity="1"><g transform="translate(52.652345, 268.499982)"><g><path d="M 107.8125 -143.125 C 110.101562 -144.164062 113.695312 -145.363281 118.59375 -146.71875 C 123.488281 -148.070312 128.4375 -148.75 133.4375 -148.75 C 142.1875 -148.75 149.476562 -147.445312 155.3125 -144.84375 C 161.144531 -142.238281 164.6875 -138.4375 165.9375 -133.4375 C 168.226562 -124.894531 170.363281 -116.925781 172.34375 -109.53125 C 174.320312 -102.132812 176.25 -95.050781 178.125 -88.28125 C 180 -81.507812 181.820312 -74.789062 183.59375 -68.125 C 185.363281 -61.457031 187.082031 -54.476562 188.75 -47.1875 L 190.3125 -47.1875 C 192.1875 -59.894531 193.851562 -72.03125 195.3125 -83.59375 C 196.769531 -95.15625 198.125 -106.507812 199.375 -117.65625 C 200.625 -128.800781 201.875 -139.84375 203.125 -150.78125 C 204.375 -161.71875 205.625 -172.8125 206.875 -184.0625 C 214.582031 -188.4375 222.8125 -190.625 231.5625 -190.625 C 239.269531 -190.625 245.9375 -188.957031 251.5625 -185.625 C 257.1875 -182.289062 260 -176.664062 260 -168.75 C 260 -164.164062 259.53125 -157.65625 258.59375 -149.21875 C 257.65625 -140.78125 256.40625 -131.351562 254.84375 -120.9375 C 253.28125 -110.519531 251.457031 -99.582031 249.375 -88.125 C 247.289062 -76.664062 245.101562 -65.726562 242.8125 -55.3125 C 240.519531 -44.894531 238.175781 -35.46875 235.78125 -27.03125 C 233.382812 -18.59375 231.144531 -12.082031 229.0625 -7.5 C 225.9375 -4.582031 220.832031 -2.1875 213.75 -0.3125 C 206.664062 1.5625 199.375 2.5 191.875 2.5 C 182.082031 2.5 173.800781 1.195312 167.03125 -1.40625 C 160.257812 -4.007812 156.144531 -7.707031 154.6875 -12.5 C 151.976562 -20.832031 149.0625 -30.726562 145.9375 -42.1875 C 142.8125 -53.644531 139.476562 -66.25 135.9375 -80 C 133.019531 -66.457031 130 -53.226562 126.875 -40.3125 C 123.75 -27.394531 120.9375 -16.457031 118.4375 -7.5 C 115.3125 -4.582031 110.625 -2.1875 104.375 -0.3125 C 98.125 1.5625 91.25 2.5 83.75 2.5 C 74.375 2.5 65.882812 1.195312 58.28125 -1.40625 C 50.675781 -4.007812 45.726562 -7.707031 43.4375 -12.5 C 41.5625 -16.25 39.53125 -21.820312 37.34375 -29.21875 C 35.15625 -36.613281 32.914062 -45.050781 30.625 -54.53125 C 28.332031 -64.007812 25.988281 -74.269531 23.59375 -85.3125 C 21.195312 -96.351562 19.007812 -107.394531 17.03125 -118.4375 C 15.050781 -129.476562 13.226562 -140.257812 11.5625 -150.78125 C 9.894531 -161.300781 8.644531 -170.9375 7.8125 -179.6875 C 10.726562 -182.394531 14.789062 -184.894531 20 -187.1875 C 25.207031 -189.476562 30.832031 -190.625 36.875 -190.625 C 44.789062 -190.625 51.300781 -188.90625 56.40625 -185.46875 C 61.507812 -182.03125 64.6875 -176.25 65.9375 -168.125 C 69.269531 -146.875 72.03125 -129.164062 74.21875 -115 C 76.40625 -100.832031 78.175781 -89.21875 79.53125 -80.15625 C 80.882812 -71.09375 81.875 -64.0625 82.5 -59.0625 C 83.125 -54.0625 83.75 -50.101562 84.375 -47.1875 L 85.9375 -47.1875 C 87.8125 -55.519531 89.582031 -63.226562 91.25 -70.3125 C 92.914062 -77.394531 94.632812 -84.53125 96.40625 -91.71875 C 98.175781 -98.90625 100 -106.613281 101.875 -114.84375 C 103.75 -123.070312 105.726562 -132.5 107.8125 -143.125 Z M 107.8125 -143.125 "/></g></g></g></svg>