<svg xmlns="http://www.w3.org/2000/svg" xmlns:xlink="http://www.w3.org/1999/xlink" width="6912" zoomAndPan="magnify" viewBox="0 0 5184 2592.000001" height="3456" preserveAspectRatio="xMidYMid meet" version="1.0"><defs><g/></defs><g fill="#ffffff" fill-opacity="1"><g transform="translate(262.918089, 1609.945137)"><g><path d="M 413.65625 -549.15625 C 422.445312 -553.144531 436.234375 -557.738281 455.015625 -562.9375 C 473.804688 -568.132812 492.796875 -570.734375 511.984375 -570.734375 C 545.554688 -570.734375 573.53125 -565.734375 595.90625 -555.734375 C 618.289062 -545.742188 631.878906 -531.160156 636.671875 -511.984375 C 645.460938 -479.203125 653.65625 -448.625 661.25 -420.25 C 668.84375 -391.875 676.238281 -364.695312 683.4375 -338.71875 C 690.632812 -312.738281 697.628906 -286.957031 704.421875 -261.375 C 711.210938 -235.800781 717.804688 -209.023438 724.203125 -181.046875 L 730.203125 -181.046875 C 737.390625 -229.804688 743.78125 -276.367188 749.375 -320.734375 C 754.976562 -365.097656 760.175781 -408.660156 764.96875 -451.421875 C 769.769531 -494.191406 774.566406 -536.554688 779.359375 -578.515625 C 784.148438 -620.484375 788.945312 -663.050781 793.75 -706.21875 C 823.320312 -723.007812 854.894531 -731.40625 888.46875 -731.40625 C 918.039062 -731.40625 943.617188 -725.007812 965.203125 -712.21875 C 986.785156 -699.425781 997.578125 -677.84375 997.578125 -647.46875 C 997.578125 -629.882812 995.78125 -604.90625 992.1875 -572.53125 C 988.59375 -540.15625 983.796875 -503.984375 977.796875 -464.015625 C 971.796875 -424.046875 964.800781 -382.078125 956.8125 -338.109375 C 948.820312 -294.148438 940.429688 -252.1875 931.640625 -212.21875 C 922.847656 -172.257812 913.851562 -136.09375 904.65625 -103.71875 C 895.46875 -71.34375 886.875 -46.363281 878.875 -28.78125 C 866.882812 -17.582031 847.300781 -8.382812 820.125 -1.1875 C 792.945312 6 764.972656 9.59375 736.203125 9.59375 C 698.628906 9.59375 666.851562 4.597656 640.875 -5.390625 C 614.894531 -15.390625 599.109375 -29.578125 593.515625 -47.953125 C 583.117188 -79.929688 571.925781 -117.898438 559.9375 -161.859375 C 547.945312 -205.828125 535.160156 -254.191406 521.578125 -306.953125 C 510.378906 -254.992188 498.785156 -204.234375 486.796875 -154.671875 C 474.804688 -105.109375 464.015625 -63.144531 454.421875 -28.78125 C 442.429688 -17.582031 424.445312 -8.382812 400.46875 -1.1875 C 376.488281 6 350.113281 9.59375 321.34375 9.59375 C 285.363281 9.59375 252.785156 4.597656 223.609375 -5.390625 C 194.441406 -15.390625 175.457031 -29.578125 166.65625 -47.953125 C 159.46875 -62.347656 151.675781 -83.734375 143.28125 -112.109375 C 134.882812 -140.484375 126.289062 -172.851562 117.5 -209.21875 C 108.707031 -245.59375 99.710938 -284.960938 90.515625 -327.328125 C 81.328125 -369.691406 72.9375 -412.054688 65.34375 -454.421875 C 57.75 -496.785156 50.753906 -538.148438 44.359375 -578.515625 C 37.960938 -618.890625 33.164062 -655.863281 29.96875 -689.4375 C 41.164062 -699.820312 56.753906 -709.410156 76.734375 -718.203125 C 96.722656 -727.003906 118.304688 -731.40625 141.484375 -731.40625 C 171.859375 -731.40625 196.835938 -724.804688 216.421875 -711.609375 C 236.003906 -698.421875 248.195312 -676.242188 253 -645.078125 C 265.78125 -563.535156 276.367188 -495.585938 284.765625 -441.234375 C 293.160156 -386.878906 299.953125 -342.316406 305.140625 -307.546875 C 310.335938 -272.773438 314.132812 -245.796875 316.53125 -226.609375 C 318.9375 -207.429688 321.335938 -192.242188 323.734375 -181.046875 L 329.734375 -181.046875 C 336.921875 -213.023438 343.710938 -242.601562 350.109375 -269.78125 C 356.503906 -296.957031 363.097656 -324.332031 369.890625 -351.90625 C 376.691406 -379.488281 383.6875 -409.066406 390.875 -440.640625 C 398.070312 -472.210938 405.664062 -508.382812 413.65625 -549.15625 Z M 413.65625 -549.15625 "/></g></g></g><g fill="#ffffff" fill-opacity="1"><g transform="translate(1297.663948, 1609.945137)"><g><path d="M 287.765625 -4.796875 C 278.972656 -2.398438 265.179688 -0.00390625 246.390625 2.390625 C 227.609375 4.796875 209.023438 6 190.640625 6 C 172.253906 6 156.066406 4.597656 142.078125 1.796875 C 128.085938 -0.992188 116.296875 -5.988281 106.703125 -13.1875 C 97.117188 -20.382812 89.925781 -30.375 85.125 -43.15625 C 80.332031 -55.945312 77.9375 -72.734375 77.9375 -93.515625 L 77.9375 -726.609375 C 86.726562 -728.203125 100.710938 -730.394531 119.890625 -733.1875 C 139.078125 -735.988281 157.46875 -737.390625 175.0625 -737.390625 C 193.445312 -737.390625 209.628906 -735.988281 223.609375 -733.1875 C 237.597656 -730.394531 249.390625 -725.398438 258.984375 -718.203125 C 268.578125 -711.015625 275.769531 -701.023438 280.5625 -688.234375 C 285.363281 -675.441406 287.765625 -658.65625 287.765625 -637.875 Z M 287.765625 -4.796875 "/></g></g></g><g fill="#ffffff" fill-opacity="1"><g transform="translate(1663.362264, 1609.945137)"><g><path d="M 284.171875 -288.96875 C 248.992188 -300.957031 217.015625 -313.144531 188.234375 -325.53125 C 159.460938 -337.925781 134.6875 -352.914062 113.90625 -370.5 C 93.125 -388.082031 76.9375 -409.0625 65.34375 -433.4375 C 53.75 -457.820312 47.953125 -487.597656 47.953125 -522.765625 C 47.953125 -590.710938 74.128906 -645.066406 126.484375 -685.828125 C 178.847656 -726.597656 252.191406 -746.984375 346.515625 -746.984375 C 380.890625 -746.984375 412.863281 -744.582031 442.4375 -739.78125 C 472.007812 -734.988281 497.382812 -727.597656 518.5625 -717.609375 C 539.75 -707.617188 556.335938 -694.828125 568.328125 -679.234375 C 580.316406 -663.648438 586.3125 -645.46875 586.3125 -624.6875 C 586.3125 -603.90625 581.515625 -586.117188 571.921875 -571.328125 C 562.335938 -556.546875 550.75 -543.957031 537.15625 -533.5625 C 519.570312 -544.75 495.988281 -554.539062 466.40625 -562.9375 C 436.832031 -571.332031 404.460938 -575.53125 369.296875 -575.53125 C 333.328125 -575.53125 306.945312 -570.53125 290.15625 -560.53125 C 273.375 -550.539062 264.984375 -537.953125 264.984375 -522.765625 C 264.984375 -510.773438 270.175781 -500.984375 280.5625 -493.390625 C 290.957031 -485.796875 306.546875 -478.800781 327.328125 -472.40625 L 390.875 -452.03125 C 466.019531 -428.050781 523.773438 -397.472656 564.140625 -360.296875 C 604.503906 -323.128906 624.6875 -272.570312 624.6875 -208.625 C 624.6875 -140.6875 597.90625 -85.734375 544.34375 -43.765625 C 490.789062 -1.796875 412.054688 19.1875 308.140625 19.1875 C 271.378906 19.1875 237.207031 16.1875 205.625 10.1875 C 174.050781 4.195312 146.472656 -4.59375 122.890625 -16.1875 C 99.316406 -27.78125 80.929688 -42.164062 67.734375 -59.34375 C 54.546875 -76.53125 47.953125 -96.316406 47.953125 -118.703125 C 47.953125 -141.878906 54.75 -161.660156 68.34375 -178.046875 C 81.9375 -194.441406 96.722656 -207.035156 112.703125 -215.828125 C 135.085938 -198.234375 162.46875 -183.039062 194.84375 -170.25 C 227.21875 -157.46875 262.585938 -151.078125 300.953125 -151.078125 C 340.117188 -151.078125 367.695312 -157.070312 383.6875 -169.0625 C 399.675781 -181.050781 407.671875 -195.039062 407.671875 -211.03125 C 407.671875 -227.007812 401.273438 -239.195312 388.484375 -247.59375 C 375.691406 -255.988281 357.707031 -264.179688 334.53125 -272.171875 Z M 284.171875 -288.96875 "/></g></g></g><g fill="#ffffff" fill-opacity="1"><g transform="translate(2324.017112, 1609.945137)"><g><path d="M 286.5625 -155.875 C 295.351562 -154.269531 306.144531 -152.867188 318.9375 -151.671875 C 331.726562 -150.472656 343.71875 -149.875 354.90625 -149.875 C 382.082031 -149.875 407.0625 -153.867188 429.84375 -161.859375 C 452.625 -169.859375 472.207031 -182.25 488.59375 -199.03125 C 504.976562 -215.820312 517.765625 -237.601562 526.953125 -264.375 C 536.148438 -291.15625 540.75 -323.332031 540.75 -360.90625 C 540.75 -432.84375 523.960938 -486.992188 490.390625 -523.359375 C 456.816406 -559.734375 412.054688 -577.921875 356.109375 -577.921875 C 344.921875 -577.921875 333.53125 -577.519531 321.9375 -576.71875 C 310.34375 -575.925781 298.550781 -574.726562 286.5625 -573.125 Z M 353.703125 19.1875 C 340.117188 19.1875 324.53125 18.785156 306.9375 17.984375 C 289.351562 17.179688 271.171875 15.582031 252.390625 13.1875 C 233.609375 10.789062 214.820312 7.789062 196.03125 4.1875 C 177.25 0.59375 159.863281 -4.398438 143.875 -10.796875 C 99.914062 -27.578125 77.9375 -56.75 77.9375 -98.3125 L 77.9375 -658.265625 C 77.9375 -675.046875 82.53125 -688.03125 91.71875 -697.21875 C 100.914062 -706.414062 113.507812 -713.8125 129.5 -719.40625 C 163.863281 -730.601562 200.226562 -738 238.59375 -741.59375 C 276.96875 -745.1875 311.34375 -746.984375 341.71875 -746.984375 C 404.070312 -746.984375 460.625 -739.390625 511.375 -724.203125 C 562.132812 -709.015625 605.695312 -685.632812 642.0625 -654.0625 C 678.4375 -622.488281 706.613281 -582.71875 726.59375 -534.75 C 746.582031 -486.789062 756.578125 -430.039062 756.578125 -364.5 C 756.578125 -300.550781 746.984375 -244.796875 727.796875 -197.234375 C 708.617188 -149.671875 681.242188 -109.703125 645.671875 -77.328125 C 610.097656 -44.960938 567.53125 -20.785156 517.96875 -4.796875 C 468.414062 11.191406 413.660156 19.1875 353.703125 19.1875 Z M 353.703125 19.1875 "/></g></g></g><g fill="#ffffff" fill-opacity="1"><g transform="translate(3122.558059, 1609.945137)"><g><path d="M 41.96875 -364.5 C 41.96875 -426.851562 51.757812 -482.007812 71.34375 -529.96875 C 90.925781 -577.925781 117.703125 -618.09375 151.671875 -650.46875 C 185.648438 -682.84375 225.617188 -707.421875 271.578125 -724.203125 C 317.535156 -740.992188 367.296875 -749.390625 420.859375 -749.390625 C 474.410156 -749.390625 524.164062 -740.992188 570.125 -724.203125 C 616.09375 -707.421875 656.257812 -682.84375 690.625 -650.46875 C 725 -618.09375 751.976562 -577.925781 771.5625 -529.96875 C 791.144531 -482.007812 800.9375 -426.851562 800.9375 -364.5 C 800.9375 -302.15625 791.34375 -246.800781 772.15625 -198.4375 C 752.976562 -150.070312 726.398438 -109.703125 692.421875 -77.328125 C 658.453125 -44.960938 618.285156 -20.382812 571.921875 -3.59375 C 525.566406 13.1875 475.210938 21.578125 420.859375 21.578125 C 366.503906 21.578125 316.144531 12.988281 269.78125 -4.1875 C 223.414062 -21.375 183.445312 -46.351562 149.875 -79.125 C 116.300781 -111.90625 89.921875 -152.273438 70.734375 -200.234375 C 51.554688 -248.191406 41.96875 -302.945312 41.96875 -364.5 Z M 257.78125 -364.5 C 257.78125 -291.757812 272.566406 -237.40625 302.140625 -201.4375 C 331.722656 -165.46875 371.296875 -147.484375 420.859375 -147.484375 C 471.210938 -147.484375 511.175781 -165.46875 540.75 -201.4375 C 570.332031 -237.40625 585.125 -291.757812 585.125 -364.5 C 585.125 -436.4375 570.535156 -490.390625 541.359375 -526.359375 C 512.179688 -562.335938 472.410156 -580.328125 422.046875 -580.328125 C 372.492188 -580.328125 332.726562 -562.539062 302.75 -526.96875 C 272.769531 -491.394531 257.78125 -437.238281 257.78125 -364.5 Z M 257.78125 -364.5 "/></g></g></g><g fill="#ffffff" fill-opacity="1"><g transform="translate(3965.46263, 1609.945137)"><g><path d="M 580.328125 -178.65625 C 569.929688 -169.863281 556.539062 -162.867188 540.15625 -157.671875 C 523.769531 -152.472656 504.785156 -149.875 483.203125 -149.875 C 454.421875 -149.875 430.640625 -153.46875 411.859375 -160.65625 C 393.078125 -167.851562 380.890625 -180.25 375.296875 -197.84375 C 352.910156 -268.175781 334.523438 -325.125 320.140625 -368.6875 C 305.753906 -412.257812 294.5625 -450.429688 286.5625 -483.203125 L 280.5625 -483.203125 C 278.164062 -436.046875 276.367188 -393.082031 275.171875 -354.3125 C 273.972656 -315.539062 273.171875 -277.769531 272.765625 -241 C 272.367188 -204.226562 271.570312 -167.054688 270.375 -129.484375 C 269.175781 -91.921875 267.378906 -50.359375 264.984375 -4.796875 C 254.585938 -0.796875 240.992188 2.597656 224.203125 5.390625 C 207.421875 8.191406 190.640625 9.59375 173.859375 9.59375 C 138.679688 9.59375 111.300781 4 91.71875 -7.1875 C 72.132812 -18.382812 62.34375 -38.769531 62.34375 -68.34375 L 97.125 -679.84375 C 103.519531 -690.226562 117.503906 -701.414062 139.078125 -713.40625 C 160.660156 -725.40625 191.039062 -731.40625 230.21875 -731.40625 C 272.582031 -731.40625 305.753906 -724.804688 329.734375 -711.609375 C 353.710938 -698.421875 371.296875 -677.039062 382.484375 -647.46875 C 389.679688 -628.28125 397.472656 -606.296875 405.859375 -581.515625 C 414.253906 -556.742188 422.648438 -531.164062 431.046875 -504.78125 C 439.441406 -478.40625 447.632812 -452.226562 455.625 -426.25 C 463.613281 -400.269531 470.804688 -376.890625 477.203125 -356.109375 L 483.203125 -356.109375 C 502.390625 -423.253906 521.570312 -488.203125 540.75 -550.953125 C 559.9375 -613.703125 577.523438 -666.257812 593.515625 -708.625 C 605.503906 -715.007812 620.890625 -720.398438 639.671875 -724.796875 C 658.460938 -729.203125 679.445312 -731.40625 702.625 -731.40625 C 741.789062 -731.40625 773.765625 -725.609375 798.546875 -714.015625 C 823.328125 -702.421875 837.710938 -685.832031 841.703125 -664.25 C 844.898438 -648.269531 848.296875 -623.691406 851.890625 -590.515625 C 855.492188 -557.335938 859.289062 -519.96875 863.28125 -478.40625 C 867.28125 -436.84375 871.28125 -392.878906 875.28125 -346.515625 C 879.28125 -300.148438 883.078125 -255.582031 886.671875 -212.8125 C 890.265625 -170.050781 893.257812 -130.882812 895.65625 -95.3125 C 898.0625 -59.75 899.660156 -32.375 900.453125 -13.1875 C 886.867188 -5.195312 872.679688 0.59375 857.890625 4.1875 C 843.109375 7.789062 824.125 9.59375 800.9375 9.59375 C 770.5625 9.59375 744.984375 4.398438 724.203125 -5.984375 C 703.421875 -16.378906 692.234375 -36.765625 690.640625 -67.140625 C 685.835938 -154.273438 682.835938 -232.613281 681.640625 -302.15625 C 680.441406 -371.695312 678.644531 -430.046875 676.25 -477.203125 L 670.25 -477.203125 C 662.257812 -446.035156 650.671875 -406.867188 635.484375 -359.703125 C 620.296875 -312.546875 601.910156 -252.195312 580.328125 -178.65625 Z M 580.328125 -178.65625 "/></g></g></g></svg>