<svg xmlns="http://www.w3.org/2000/svg" xmlns:xlink="http://www.w3.org/1999/xlink" width="300" zoomAndPan="magnify" viewBox="0 0 224.87999 83.999999" height="112" preserveAspectRatio="xMidYMid meet" version="1.0"><defs><g/></defs><g fill="#ffffff" fill-opacity="1"><g transform="translate(13.399099, 43.4992)"><g><path d="M 17.59375 -23.359375 C 17.96875 -23.523438 18.550781 -23.71875 19.34375 -23.9375 C 20.144531 -24.164062 20.957031 -24.28125 21.78125 -24.28125 C 23.207031 -24.28125 24.394531 -24.066406 25.34375 -23.640625 C 26.300781 -23.210938 26.878906 -22.59375 27.078125 -21.78125 C 27.453125 -20.382812 27.800781 -19.082031 28.125 -17.875 C 28.445312 -16.664062 28.757812 -15.507812 29.0625 -14.40625 C 29.375 -13.300781 29.671875 -12.203125 29.953125 -11.109375 C 30.242188 -10.023438 30.523438 -8.890625 30.796875 -7.703125 L 31.0625 -7.703125 C 31.363281 -9.773438 31.632812 -11.753906 31.875 -13.640625 C 32.113281 -15.523438 32.332031 -17.378906 32.53125 -19.203125 C 32.738281 -21.023438 32.941406 -22.828125 33.140625 -24.609375 C 33.347656 -26.390625 33.554688 -28.203125 33.765625 -30.046875 C 35.023438 -30.753906 36.367188 -31.109375 37.796875 -31.109375 C 39.046875 -31.109375 40.128906 -30.835938 41.046875 -30.296875 C 41.972656 -29.753906 42.4375 -28.835938 42.4375 -27.546875 C 42.4375 -26.796875 42.359375 -25.726562 42.203125 -24.34375 C 42.046875 -22.96875 41.835938 -21.429688 41.578125 -19.734375 C 41.328125 -18.035156 41.03125 -16.25 40.6875 -14.375 C 40.351562 -12.507812 40 -10.726562 39.625 -9.03125 C 39.25 -7.332031 38.863281 -5.789062 38.46875 -4.40625 C 38.082031 -3.03125 37.722656 -1.96875 37.390625 -1.21875 C 36.878906 -0.75 36.046875 -0.359375 34.890625 -0.046875 C 33.734375 0.253906 32.539062 0.40625 31.3125 0.40625 C 29.71875 0.40625 28.367188 0.195312 27.265625 -0.21875 C 26.160156 -0.644531 25.488281 -1.253906 25.25 -2.046875 C 24.800781 -3.398438 24.320312 -5.007812 23.8125 -6.875 C 23.300781 -8.75 22.757812 -10.8125 22.1875 -13.0625 C 21.707031 -10.84375 21.210938 -8.679688 20.703125 -6.578125 C 20.191406 -4.472656 19.734375 -2.6875 19.328125 -1.21875 C 18.816406 -0.75 18.050781 -0.359375 17.03125 -0.046875 C 16.007812 0.253906 14.890625 0.40625 13.671875 0.40625 C 12.140625 0.40625 10.753906 0.195312 9.515625 -0.21875 C 8.273438 -0.644531 7.46875 -1.253906 7.09375 -2.046875 C 6.78125 -2.648438 6.445312 -3.554688 6.09375 -4.765625 C 5.738281 -5.972656 5.375 -7.347656 5 -8.890625 C 4.625 -10.441406 4.238281 -12.117188 3.84375 -13.921875 C 3.457031 -15.722656 3.101562 -17.523438 2.78125 -19.328125 C 2.457031 -21.128906 2.160156 -22.890625 1.890625 -24.609375 C 1.617188 -26.328125 1.414062 -27.898438 1.28125 -29.328125 C 1.75 -29.765625 2.40625 -30.171875 3.25 -30.546875 C 4.101562 -30.921875 5.023438 -31.109375 6.015625 -31.109375 C 7.304688 -31.109375 8.367188 -30.828125 9.203125 -30.265625 C 10.035156 -29.703125 10.554688 -28.757812 10.765625 -27.4375 C 11.304688 -23.96875 11.753906 -21.078125 12.109375 -18.765625 C 12.460938 -16.453125 12.75 -14.554688 12.96875 -13.078125 C 13.195312 -11.597656 13.359375 -10.453125 13.453125 -9.640625 C 13.554688 -8.828125 13.660156 -8.179688 13.765625 -7.703125 L 14.03125 -7.703125 C 14.332031 -9.054688 14.617188 -10.3125 14.890625 -11.46875 C 15.160156 -12.625 15.441406 -13.789062 15.734375 -14.96875 C 16.023438 -16.144531 16.320312 -17.398438 16.625 -18.734375 C 16.925781 -20.078125 17.25 -21.617188 17.59375 -23.359375 Z M 17.59375 -23.359375 "/></g></g></g><g fill="#ffffff" fill-opacity="1"><g transform="translate(57.398703, 43.4992)"><g><path d="M 12.234375 -0.203125 C 11.859375 -0.0976562 11.269531 0 10.46875 0.09375 C 9.675781 0.195312 8.890625 0.25 8.109375 0.25 C 7.328125 0.25 6.640625 0.1875 6.046875 0.0625 C 5.453125 -0.0507812 4.945312 -0.257812 4.53125 -0.5625 C 4.125 -0.863281 3.816406 -1.285156 3.609375 -1.828125 C 3.410156 -2.378906 3.3125 -3.097656 3.3125 -3.984375 L 3.3125 -30.90625 C 3.6875 -30.976562 4.28125 -31.070312 5.09375 -31.1875 C 5.914062 -31.300781 6.703125 -31.359375 7.453125 -31.359375 C 8.234375 -31.359375 8.921875 -31.300781 9.515625 -31.1875 C 10.109375 -31.070312 10.609375 -30.859375 11.015625 -30.546875 C 11.421875 -30.242188 11.722656 -29.816406 11.921875 -29.265625 C 12.128906 -28.722656 12.234375 -28.007812 12.234375 -27.125 Z M 12.234375 -0.203125 "/></g></g></g><g fill="#ffffff" fill-opacity="1"><g transform="translate(72.948967, 43.4992)"><g><path d="M 12.09375 -12.296875 C 10.59375 -12.804688 9.226562 -13.320312 8 -13.84375 C 6.78125 -14.375 5.726562 -15.007812 4.84375 -15.75 C 3.957031 -16.5 3.269531 -17.390625 2.78125 -18.421875 C 2.289062 -19.460938 2.046875 -20.734375 2.046875 -22.234375 C 2.046875 -25.128906 3.15625 -27.441406 5.375 -29.171875 C 7.601562 -30.898438 10.722656 -31.765625 14.734375 -31.765625 C 16.203125 -31.765625 17.5625 -31.660156 18.8125 -31.453125 C 20.070312 -31.253906 21.148438 -30.941406 22.046875 -30.515625 C 22.953125 -30.097656 23.660156 -29.554688 24.171875 -28.890625 C 24.679688 -28.222656 24.9375 -27.453125 24.9375 -26.578125 C 24.9375 -25.691406 24.734375 -24.929688 24.328125 -24.296875 C 23.921875 -23.671875 23.425781 -23.132812 22.84375 -22.6875 C 22.09375 -23.164062 21.085938 -23.582031 19.828125 -23.9375 C 18.578125 -24.300781 17.203125 -24.484375 15.703125 -24.484375 C 14.171875 -24.484375 13.046875 -24.269531 12.328125 -23.84375 C 11.617188 -23.414062 11.265625 -22.878906 11.265625 -22.234375 C 11.265625 -21.722656 11.484375 -21.304688 11.921875 -20.984375 C 12.367188 -20.660156 13.035156 -20.363281 13.921875 -20.09375 L 16.625 -19.234375 C 19.820312 -18.210938 22.28125 -16.910156 24 -15.328125 C 25.71875 -13.742188 26.578125 -11.59375 26.578125 -8.875 C 26.578125 -5.976562 25.4375 -3.640625 23.15625 -1.859375 C 20.875 -0.078125 17.523438 0.8125 13.109375 0.8125 C 11.546875 0.8125 10.09375 0.679688 8.75 0.421875 C 7.40625 0.171875 6.226562 -0.195312 5.21875 -0.6875 C 4.21875 -1.175781 3.4375 -1.785156 2.875 -2.515625 C 2.320312 -3.253906 2.046875 -4.097656 2.046875 -5.046875 C 2.046875 -6.035156 2.332031 -6.878906 2.90625 -7.578125 C 3.488281 -8.273438 4.117188 -8.8125 4.796875 -9.1875 C 5.742188 -8.4375 6.90625 -7.785156 8.28125 -7.234375 C 9.664062 -6.691406 11.171875 -6.421875 12.796875 -6.421875 C 14.460938 -6.421875 15.632812 -6.675781 16.3125 -7.1875 C 17 -7.695312 17.34375 -8.289062 17.34375 -8.96875 C 17.34375 -9.65625 17.066406 -10.175781 16.515625 -10.53125 C 15.972656 -10.882812 15.210938 -11.234375 14.234375 -11.578125 Z M 12.09375 -12.296875 "/></g></g></g><g fill="#ffffff" fill-opacity="1"><g transform="translate(101.041407, 43.4992)"><g><path d="M 12.1875 -6.625 C 12.5625 -6.5625 13.019531 -6.503906 13.5625 -6.453125 C 14.101562 -6.398438 14.613281 -6.375 15.09375 -6.375 C 16.25 -6.375 17.3125 -6.539062 18.28125 -6.875 C 19.25 -7.21875 20.082031 -7.742188 20.78125 -8.453125 C 21.476562 -9.171875 22.019531 -10.097656 22.40625 -11.234375 C 22.800781 -12.378906 23 -13.75 23 -15.34375 C 23 -18.40625 22.285156 -20.707031 20.859375 -22.25 C 19.429688 -23.800781 17.523438 -24.578125 15.140625 -24.578125 C 14.671875 -24.578125 14.1875 -24.5625 13.6875 -24.53125 C 13.195312 -24.5 12.695312 -24.445312 12.1875 -24.375 Z M 15.046875 0.8125 C 14.460938 0.8125 13.796875 0.796875 13.046875 0.765625 C 12.304688 0.734375 11.535156 0.664062 10.734375 0.5625 C 9.929688 0.457031 9.128906 0.328125 8.328125 0.171875 C 7.535156 0.0234375 6.800781 -0.179688 6.125 -0.453125 C 4.25 -1.171875 3.3125 -2.414062 3.3125 -4.1875 L 3.3125 -28 C 3.3125 -28.707031 3.503906 -29.257812 3.890625 -29.65625 C 4.285156 -30.050781 4.828125 -30.363281 5.515625 -30.59375 C 6.972656 -31.070312 8.515625 -31.382812 10.140625 -31.53125 C 11.773438 -31.6875 13.238281 -31.765625 14.53125 -31.765625 C 17.1875 -31.765625 19.59375 -31.441406 21.75 -30.796875 C 23.90625 -30.148438 25.753906 -29.15625 27.296875 -27.8125 C 28.847656 -26.476562 30.050781 -24.789062 30.90625 -22.75 C 31.757812 -20.707031 32.1875 -18.289062 32.1875 -15.5 C 32.1875 -12.78125 31.773438 -10.410156 30.953125 -8.390625 C 30.140625 -6.367188 28.972656 -4.664062 27.453125 -3.28125 C 25.941406 -1.90625 24.132812 -0.878906 22.03125 -0.203125 C 19.925781 0.472656 17.597656 0.8125 15.046875 0.8125 Z M 15.046875 0.8125 "/></g></g></g><g fill="#ffffff" fill-opacity="1"><g transform="translate(134.997063, 43.4992)"><g><path d="M 1.78125 -15.5 C 1.78125 -18.15625 2.195312 -20.503906 3.03125 -22.546875 C 3.863281 -24.585938 5.003906 -26.296875 6.453125 -27.671875 C 7.898438 -29.046875 9.597656 -30.085938 11.546875 -30.796875 C 13.503906 -31.515625 15.625 -31.875 17.90625 -31.875 C 20.175781 -31.875 22.289062 -31.515625 24.25 -30.796875 C 26.207031 -30.085938 27.914062 -29.046875 29.375 -27.671875 C 30.832031 -26.296875 31.976562 -24.585938 32.8125 -22.546875 C 33.644531 -20.503906 34.0625 -18.15625 34.0625 -15.5 C 34.0625 -12.851562 33.65625 -10.5 32.84375 -8.4375 C 32.03125 -6.382812 30.898438 -4.664062 29.453125 -3.28125 C 28.003906 -1.90625 26.296875 -0.859375 24.328125 -0.140625 C 22.359375 0.566406 20.21875 0.921875 17.90625 0.921875 C 15.59375 0.921875 13.445312 0.554688 11.46875 -0.171875 C 9.5 -0.910156 7.800781 -1.972656 6.375 -3.359375 C 4.945312 -4.753906 3.820312 -6.472656 3 -8.515625 C 2.1875 -10.554688 1.78125 -12.882812 1.78125 -15.5 Z M 10.96875 -15.5 C 10.96875 -12.40625 11.59375 -10.09375 12.84375 -8.5625 C 14.101562 -7.03125 15.789062 -6.265625 17.90625 -6.265625 C 20.039062 -6.265625 21.738281 -7.03125 23 -8.5625 C 24.257812 -10.09375 24.890625 -12.40625 24.890625 -15.5 C 24.890625 -18.5625 24.269531 -20.859375 23.03125 -22.390625 C 21.789062 -23.921875 20.097656 -24.6875 17.953125 -24.6875 C 15.847656 -24.6875 14.15625 -23.925781 12.875 -22.40625 C 11.601562 -20.894531 10.96875 -18.59375 10.96875 -15.5 Z M 10.96875 -15.5 "/></g></g></g><g fill="#ffffff" fill-opacity="1"><g transform="translate(170.839151, 43.4992)"><g><path d="M 24.6875 -7.59375 C 24.238281 -7.21875 23.664062 -6.921875 22.96875 -6.703125 C 22.28125 -6.484375 21.472656 -6.375 20.546875 -6.375 C 19.328125 -6.375 18.316406 -6.523438 17.515625 -6.828125 C 16.710938 -7.140625 16.195312 -7.671875 15.96875 -8.421875 C 15.007812 -11.410156 14.222656 -13.832031 13.609375 -15.6875 C 13.003906 -17.539062 12.53125 -19.160156 12.1875 -20.546875 L 11.9375 -20.546875 C 11.832031 -18.546875 11.753906 -16.71875 11.703125 -15.0625 C 11.648438 -13.414062 11.613281 -11.8125 11.59375 -10.25 C 11.582031 -8.6875 11.550781 -7.101562 11.5 -5.5 C 11.445312 -3.90625 11.367188 -2.140625 11.265625 -0.203125 C 10.828125 -0.0351562 10.25 0.101562 9.53125 0.21875 C 8.820312 0.34375 8.109375 0.40625 7.390625 0.40625 C 5.898438 0.40625 4.738281 0.171875 3.90625 -0.296875 C 3.070312 -0.773438 2.65625 -1.644531 2.65625 -2.90625 L 4.125 -28.921875 C 4.394531 -29.359375 4.988281 -29.832031 5.90625 -30.34375 C 6.832031 -30.851562 8.128906 -31.109375 9.796875 -31.109375 C 11.597656 -31.109375 13.007812 -30.828125 14.03125 -30.265625 C 15.050781 -29.703125 15.796875 -28.796875 16.265625 -27.546875 C 16.578125 -26.722656 16.910156 -25.785156 17.265625 -24.734375 C 17.617188 -23.679688 17.972656 -22.59375 18.328125 -21.46875 C 18.691406 -20.34375 19.039062 -19.226562 19.375 -18.125 C 19.71875 -17.019531 20.023438 -16.023438 20.296875 -15.140625 L 20.546875 -15.140625 C 21.367188 -18.003906 22.1875 -20.769531 23 -23.4375 C 23.8125 -26.101562 24.5625 -28.335938 25.25 -30.140625 C 25.757812 -30.410156 26.410156 -30.640625 27.203125 -30.828125 C 28.003906 -31.015625 28.898438 -31.109375 29.890625 -31.109375 C 31.554688 -31.109375 32.914062 -30.859375 33.96875 -30.359375 C 35.019531 -29.867188 35.628906 -29.164062 35.796875 -28.25 C 35.929688 -27.570312 36.078125 -26.523438 36.234375 -25.109375 C 36.390625 -23.703125 36.550781 -22.113281 36.71875 -20.34375 C 36.882812 -18.582031 37.050781 -16.710938 37.21875 -14.734375 C 37.394531 -12.765625 37.554688 -10.867188 37.703125 -9.046875 C 37.859375 -7.234375 37.988281 -5.566406 38.09375 -4.046875 C 38.195312 -2.535156 38.265625 -1.375 38.296875 -0.5625 C 37.722656 -0.21875 37.117188 0.0234375 36.484375 0.171875 C 35.859375 0.328125 35.050781 0.40625 34.0625 0.40625 C 32.769531 0.40625 31.679688 0.1875 30.796875 -0.25 C 29.921875 -0.695312 29.445312 -1.566406 29.375 -2.859375 C 29.164062 -6.566406 29.035156 -9.894531 28.984375 -12.84375 C 28.941406 -15.800781 28.867188 -18.285156 28.765625 -20.296875 L 28.515625 -20.296875 C 28.171875 -18.972656 27.675781 -17.304688 27.03125 -15.296875 C 26.382812 -13.296875 25.601562 -10.726562 24.6875 -7.59375 Z M 24.6875 -7.59375 "/></g></g></g><g fill="#ffffff" fill-opacity="1"><g transform="translate(13.255446, 75.811246)"><g><path d="M 1.375 0 C 1.28125 0 1.195312 -0.03125 1.125 -0.09375 C 1.0625 -0.164062 1.03125 -0.25 1.03125 -0.34375 L 1.03125 -9.46875 C 1.03125 -9.570312 1.0625 -9.65625 1.125 -9.71875 C 1.195312 -9.789062 1.28125 -9.828125 1.375 -9.828125 L 7.75 -9.828125 C 7.851562 -9.828125 7.9375 -9.789062 8 -9.71875 C 8.0625 -9.65625 8.09375 -9.570312 8.09375 -9.46875 L 8.09375 -8.34375 C 8.09375 -8.238281 8.0625 -8.15625 8 -8.09375 C 7.9375 -8.03125 7.851562 -8 7.75 -8 L 3.203125 -8 L 3.203125 -5.8125 L 7.4375 -5.8125 C 7.539062 -5.8125 7.625 -5.773438 7.6875 -5.703125 C 7.75 -5.640625 7.78125 -5.554688 7.78125 -5.453125 L 7.78125 -4.421875 C 7.78125 -4.328125 7.75 -4.242188 7.6875 -4.171875 C 7.625 -4.097656 7.539062 -4.0625 7.4375 -4.0625 L 3.203125 -4.0625 L 3.203125 -1.828125 L 7.859375 -1.828125 C 7.960938 -1.828125 8.046875 -1.789062 8.109375 -1.71875 C 8.171875 -1.65625 8.203125 -1.570312 8.203125 -1.46875 L 8.203125 -0.34375 C 8.203125 -0.25 8.171875 -0.164062 8.109375 -0.09375 C 8.046875 -0.03125 7.960938 0 7.859375 0 Z M 1.375 0 "/></g></g></g><g fill="#ffffff" fill-opacity="1"><g transform="translate(27.725144, 75.811246)"><g><path d="M 1.171875 -3.296875 C 1.078125 -3.296875 1 -3.328125 0.9375 -3.390625 C 0.875 -3.460938 0.84375 -3.546875 0.84375 -3.640625 L 0.84375 -4.765625 C 0.84375 -4.867188 0.875 -4.953125 0.9375 -5.015625 C 1 -5.085938 1.078125 -5.125 1.171875 -5.125 L 5.546875 -5.125 C 5.640625 -5.125 5.71875 -5.085938 5.78125 -5.015625 C 5.84375 -4.953125 5.875 -4.867188 5.875 -4.765625 L 5.875 -3.640625 C 5.875 -3.546875 5.84375 -3.460938 5.78125 -3.390625 C 5.71875 -3.328125 5.640625 -3.296875 5.546875 -3.296875 Z M 1.171875 -3.296875 "/></g></g></g><g fill="#ffffff" fill-opacity="1"><g transform="translate(40.062047, 75.811246)"><g><path d="M 1.375 0 C 1.28125 0 1.195312 -0.03125 1.125 -0.09375 C 1.0625 -0.164062 1.03125 -0.25 1.03125 -0.34375 L 1.03125 -9.46875 C 1.03125 -9.570312 1.0625 -9.65625 1.125 -9.71875 C 1.195312 -9.789062 1.28125 -9.828125 1.375 -9.828125 L 2.953125 -9.828125 C 3.046875 -9.828125 3.125 -9.789062 3.1875 -9.71875 C 3.257812 -9.65625 3.296875 -9.570312 3.296875 -9.46875 L 3.296875 -1.890625 L 7.640625 -1.890625 C 7.742188 -1.890625 7.828125 -1.859375 7.890625 -1.796875 C 7.960938 -1.734375 8 -1.648438 8 -1.546875 L 8 -0.34375 C 8 -0.25 7.960938 -0.164062 7.890625 -0.09375 C 7.828125 -0.03125 7.742188 0 7.640625 0 Z M 1.375 0 "/></g></g></g><g fill="#ffffff" fill-opacity="1"><g transform="translate(53.92839, 75.811246)"><g><path d="M 1.375 0 C 1.28125 0 1.195312 -0.03125 1.125 -0.09375 C 1.0625 -0.164062 1.03125 -0.25 1.03125 -0.34375 L 1.03125 -9.46875 C 1.03125 -9.570312 1.0625 -9.65625 1.125 -9.71875 C 1.195312 -9.789062 1.28125 -9.828125 1.375 -9.828125 L 7.75 -9.828125 C 7.851562 -9.828125 7.9375 -9.789062 8 -9.71875 C 8.0625 -9.65625 8.09375 -9.570312 8.09375 -9.46875 L 8.09375 -8.34375 C 8.09375 -8.238281 8.0625 -8.15625 8 -8.09375 C 7.9375 -8.03125 7.851562 -8 7.75 -8 L 3.203125 -8 L 3.203125 -5.8125 L 7.4375 -5.8125 C 7.539062 -5.8125 7.625 -5.773438 7.6875 -5.703125 C 7.75 -5.640625 7.78125 -5.554688 7.78125 -5.453125 L 7.78125 -4.421875 C 7.78125 -4.328125 7.75 -4.242188 7.6875 -4.171875 C 7.625 -4.097656 7.539062 -4.0625 7.4375 -4.0625 L 3.203125 -4.0625 L 3.203125 -1.828125 L 7.859375 -1.828125 C 7.960938 -1.828125 8.046875 -1.789062 8.109375 -1.71875 C 8.171875 -1.65625 8.203125 -1.570312 8.203125 -1.46875 L 8.203125 -0.34375 C 8.203125 -0.25 8.171875 -0.164062 8.109375 -0.09375 C 8.046875 -0.03125 7.960938 0 7.859375 0 Z M 1.375 0 "/></g></g></g><g fill="#ffffff" fill-opacity="1"><g transform="translate(68.39809, 75.811246)"><g><path d="M 0.46875 0 C 0.382812 0 0.3125 -0.03125 0.25 -0.09375 C 0.195312 -0.15625 0.171875 -0.222656 0.171875 -0.296875 C 0.171875 -0.335938 0.175781 -0.378906 0.1875 -0.421875 L 3.515625 -9.4375 C 3.546875 -9.539062 3.601562 -9.628906 3.6875 -9.703125 C 3.769531 -9.785156 3.890625 -9.828125 4.046875 -9.828125 L 5.84375 -9.828125 C 5.988281 -9.828125 6.101562 -9.785156 6.1875 -9.703125 C 6.269531 -9.628906 6.332031 -9.539062 6.375 -9.4375 L 9.703125 -0.421875 C 9.710938 -0.378906 9.71875 -0.335938 9.71875 -0.296875 C 9.71875 -0.222656 9.6875 -0.15625 9.625 -0.09375 C 9.570312 -0.03125 9.503906 0 9.421875 0 L 7.9375 0 C 7.8125 0 7.710938 -0.03125 7.640625 -0.09375 C 7.578125 -0.164062 7.535156 -0.226562 7.515625 -0.28125 L 6.921875 -1.859375 L 2.953125 -1.859375 L 2.375 -0.28125 C 2.34375 -0.226562 2.296875 -0.164062 2.234375 -0.09375 C 2.171875 -0.03125 2.070312 0 1.9375 0 Z M 3.5 -3.65625 L 6.390625 -3.65625 L 4.9375 -7.6875 Z M 3.5 -3.65625 "/></g></g></g><g fill="#ffffff" fill-opacity="1"><g transform="translate(83.892097, 75.811246)"><g><path d="M 1.375 0 C 1.28125 0 1.195312 -0.03125 1.125 -0.09375 C 1.0625 -0.164062 1.03125 -0.25 1.03125 -0.34375 L 1.03125 -9.46875 C 1.03125 -9.570312 1.0625 -9.65625 1.125 -9.71875 C 1.195312 -9.789062 1.28125 -9.828125 1.375 -9.828125 L 5.109375 -9.828125 C 6.273438 -9.828125 7.191406 -9.554688 7.859375 -9.015625 C 8.535156 -8.472656 8.875 -7.695312 8.875 -6.6875 C 8.875 -6.007812 8.710938 -5.441406 8.390625 -4.984375 C 8.066406 -4.523438 7.628906 -4.179688 7.078125 -3.953125 L 9.0625 -0.453125 C 9.09375 -0.390625 9.109375 -0.335938 9.109375 -0.296875 C 9.109375 -0.222656 9.078125 -0.15625 9.015625 -0.09375 C 8.953125 -0.03125 8.882812 0 8.8125 0 L 7.234375 0 C 7.066406 0 6.941406 -0.0390625 6.859375 -0.125 C 6.773438 -0.21875 6.710938 -0.300781 6.671875 -0.375 L 4.96875 -3.59375 L 3.265625 -3.59375 L 3.265625 -0.34375 C 3.265625 -0.25 3.234375 -0.164062 3.171875 -0.09375 C 3.109375 -0.03125 3.023438 0 2.921875 0 Z M 3.265625 -5.375 L 5.078125 -5.375 C 5.585938 -5.375 5.960938 -5.488281 6.203125 -5.71875 C 6.453125 -5.957031 6.578125 -6.285156 6.578125 -6.703125 C 6.578125 -7.128906 6.453125 -7.460938 6.203125 -7.703125 C 5.960938 -7.941406 5.585938 -8.0625 5.078125 -8.0625 L 3.265625 -8.0625 Z M 3.265625 -5.375 "/></g></g></g><g fill="#ffffff" fill-opacity="1"><g transform="translate(99.077414, 75.811246)"><g><path d="M 1.375 0 C 1.28125 0 1.195312 -0.03125 1.125 -0.09375 C 1.0625 -0.164062 1.03125 -0.25 1.03125 -0.34375 L 1.03125 -9.46875 C 1.03125 -9.570312 1.0625 -9.65625 1.125 -9.71875 C 1.195312 -9.789062 1.28125 -9.828125 1.375 -9.828125 L 2.671875 -9.828125 C 2.804688 -9.828125 2.90625 -9.789062 2.96875 -9.71875 C 3.039062 -9.65625 3.082031 -9.601562 3.09375 -9.5625 L 6.828125 -3.734375 L 6.828125 -9.46875 C 6.828125 -9.570312 6.859375 -9.65625 6.921875 -9.71875 C 6.992188 -9.789062 7.082031 -9.828125 7.1875 -9.828125 L 8.609375 -9.828125 C 8.710938 -9.828125 8.796875 -9.789062 8.859375 -9.71875 C 8.929688 -9.65625 8.96875 -9.570312 8.96875 -9.46875 L 8.96875 -0.34375 C 8.96875 -0.25 8.929688 -0.164062 8.859375 -0.09375 C 8.796875 -0.03125 8.710938 0 8.609375 0 L 7.328125 0 C 7.179688 0 7.078125 -0.03125 7.015625 -0.09375 C 6.953125 -0.164062 6.910156 -0.21875 6.890625 -0.25 L 3.171875 -5.90625 L 3.171875 -0.34375 C 3.171875 -0.25 3.132812 -0.164062 3.0625 -0.09375 C 3 -0.03125 2.914062 0 2.8125 0 Z M 1.375 0 "/></g></g></g><g fill="#ffffff" fill-opacity="1"><g transform="translate(114.697707, 75.811246)"><g><path d="M 1.375 0 C 1.28125 0 1.195312 -0.03125 1.125 -0.09375 C 1.0625 -0.164062 1.03125 -0.25 1.03125 -0.34375 L 1.03125 -9.46875 C 1.03125 -9.570312 1.0625 -9.65625 1.125 -9.71875 C 1.195312 -9.789062 1.28125 -9.828125 1.375 -9.828125 L 2.984375 -9.828125 C 3.078125 -9.828125 3.15625 -9.789062 3.21875 -9.71875 C 3.289062 -9.65625 3.328125 -9.570312 3.328125 -9.46875 L 3.328125 -0.34375 C 3.328125 -0.25 3.289062 -0.164062 3.21875 -0.09375 C 3.15625 -0.03125 3.078125 0 2.984375 0 Z M 1.375 0 "/></g></g></g><g fill="#ffffff" fill-opacity="1"><g transform="translate(124.677306, 75.811246)"><g><path d="M 1.375 0 C 1.28125 0 1.195312 -0.03125 1.125 -0.09375 C 1.0625 -0.164062 1.03125 -0.25 1.03125 -0.34375 L 1.03125 -9.46875 C 1.03125 -9.570312 1.0625 -9.65625 1.125 -9.71875 C 1.195312 -9.789062 1.28125 -9.828125 1.375 -9.828125 L 2.671875 -9.828125 C 2.804688 -9.828125 2.90625 -9.789062 2.96875 -9.71875 C 3.039062 -9.65625 3.082031 -9.601562 3.09375 -9.5625 L 6.828125 -3.734375 L 6.828125 -9.46875 C 6.828125 -9.570312 6.859375 -9.65625 6.921875 -9.71875 C 6.992188 -9.789062 7.082031 -9.828125 7.1875 -9.828125 L 8.609375 -9.828125 C 8.710938 -9.828125 8.796875 -9.789062 8.859375 -9.71875 C 8.929688 -9.65625 8.96875 -9.570312 8.96875 -9.46875 L 8.96875 -0.34375 C 8.96875 -0.25 8.929688 -0.164062 8.859375 -0.09375 C 8.796875 -0.03125 8.710938 0 8.609375 0 L 7.328125 0 C 7.179688 0 7.078125 -0.03125 7.015625 -0.09375 C 6.953125 -0.164062 6.910156 -0.21875 6.890625 -0.25 L 3.171875 -5.90625 L 3.171875 -0.34375 C 3.171875 -0.25 3.132812 -0.164062 3.0625 -0.09375 C 3 -0.03125 2.914062 0 2.8125 0 Z M 1.375 0 "/></g></g></g><g fill="#ffffff" fill-opacity="1"><g transform="translate(140.297593, 75.811246)"><g><path d="M 4.984375 0.140625 C 4.097656 0.140625 3.34375 -0.00390625 2.71875 -0.296875 C 2.101562 -0.597656 1.625 -1.03125 1.28125 -1.59375 C 0.9375 -2.15625 0.753906 -2.835938 0.734375 -3.640625 C 0.722656 -4.046875 0.71875 -4.476562 0.71875 -4.9375 C 0.71875 -5.394531 0.722656 -5.832031 0.734375 -6.25 C 0.753906 -7.03125 0.9375 -7.695312 1.28125 -8.25 C 1.625 -8.800781 2.109375 -9.222656 2.734375 -9.515625 C 3.367188 -9.816406 4.117188 -9.96875 4.984375 -9.96875 C 5.671875 -9.96875 6.273438 -9.875 6.796875 -9.6875 C 7.328125 -9.507812 7.769531 -9.28125 8.125 -9 C 8.488281 -8.71875 8.757812 -8.40625 8.9375 -8.0625 C 9.125 -7.726562 9.222656 -7.398438 9.234375 -7.078125 C 9.234375 -6.992188 9.203125 -6.925781 9.140625 -6.875 C 9.085938 -6.820312 9.015625 -6.796875 8.921875 -6.796875 L 7.1875 -6.796875 C 7.09375 -6.796875 7.019531 -6.8125 6.96875 -6.84375 C 6.914062 -6.882812 6.867188 -6.941406 6.828125 -7.015625 C 6.765625 -7.171875 6.660156 -7.335938 6.515625 -7.515625 C 6.367188 -7.691406 6.175781 -7.835938 5.9375 -7.953125 C 5.695312 -8.078125 5.378906 -8.140625 4.984375 -8.140625 C 4.390625 -8.140625 3.921875 -7.984375 3.578125 -7.671875 C 3.242188 -7.367188 3.0625 -6.867188 3.03125 -6.171875 C 3 -5.367188 3 -4.550781 3.03125 -3.71875 C 3.0625 -3 3.253906 -2.476562 3.609375 -2.15625 C 3.960938 -1.84375 4.429688 -1.6875 5.015625 -1.6875 C 5.390625 -1.6875 5.726562 -1.753906 6.03125 -1.890625 C 6.34375 -2.023438 6.585938 -2.234375 6.765625 -2.515625 C 6.941406 -2.804688 7.03125 -3.175781 7.03125 -3.625 L 7.03125 -3.96875 L 5.5 -3.96875 C 5.40625 -3.96875 5.320312 -4.003906 5.25 -4.078125 C 5.1875 -4.148438 5.15625 -4.234375 5.15625 -4.328125 L 5.15625 -5.21875 C 5.15625 -5.320312 5.1875 -5.40625 5.25 -5.46875 C 5.320312 -5.539062 5.40625 -5.578125 5.5 -5.578125 L 8.953125 -5.578125 C 9.054688 -5.578125 9.140625 -5.539062 9.203125 -5.46875 C 9.265625 -5.40625 9.296875 -5.320312 9.296875 -5.21875 L 9.296875 -3.6875 C 9.296875 -2.882812 9.117188 -2.195312 8.765625 -1.625 C 8.410156 -1.050781 7.90625 -0.613281 7.25 -0.3125 C 6.601562 -0.0078125 5.847656 0.140625 4.984375 0.140625 Z M 4.984375 0.140625 "/></g></g></g><g fill="#ffffff" fill-opacity="1"><g transform="translate(155.875788, 75.811246)"><g><path d="M 3.546875 0 C 3.441406 0 3.359375 -0.03125 3.296875 -0.09375 C 3.234375 -0.164062 3.203125 -0.25 3.203125 -0.34375 L 3.203125 -7.859375 L 0.640625 -7.859375 C 0.546875 -7.859375 0.46875 -7.890625 0.40625 -7.953125 C 0.34375 -8.015625 0.3125 -8.097656 0.3125 -8.203125 L 0.3125 -9.46875 C 0.3125 -9.570312 0.34375 -9.65625 0.40625 -9.71875 C 0.46875 -9.789062 0.546875 -9.828125 0.640625 -9.828125 L 8 -9.828125 C 8.101562 -9.828125 8.1875 -9.789062 8.25 -9.71875 C 8.3125 -9.65625 8.34375 -9.570312 8.34375 -9.46875 L 8.34375 -8.203125 C 8.34375 -8.097656 8.3125 -8.015625 8.25 -7.953125 C 8.1875 -7.890625 8.101562 -7.859375 8 -7.859375 L 5.453125 -7.859375 L 5.453125 -0.34375 C 5.453125 -0.25 5.421875 -0.164062 5.359375 -0.09375 C 5.296875 -0.03125 5.210938 0 5.109375 0 Z M 3.546875 0 "/></g></g></g><g fill="#ffffff" fill-opacity="1"><g transform="translate(170.149047, 75.811246)"><g><path d="M 1.375 0 C 1.28125 0 1.195312 -0.03125 1.125 -0.09375 C 1.0625 -0.164062 1.03125 -0.25 1.03125 -0.34375 L 1.03125 -9.46875 C 1.03125 -9.570312 1.0625 -9.65625 1.125 -9.71875 C 1.195312 -9.789062 1.28125 -9.828125 1.375 -9.828125 L 7.75 -9.828125 C 7.851562 -9.828125 7.9375 -9.789062 8 -9.71875 C 8.0625 -9.65625 8.09375 -9.570312 8.09375 -9.46875 L 8.09375 -8.34375 C 8.09375 -8.238281 8.0625 -8.15625 8 -8.09375 C 7.9375 -8.03125 7.851562 -8 7.75 -8 L 3.203125 -8 L 3.203125 -5.8125 L 7.4375 -5.8125 C 7.539062 -5.8125 7.625 -5.773438 7.6875 -5.703125 C 7.75 -5.640625 7.78125 -5.554688 7.78125 -5.453125 L 7.78125 -4.421875 C 7.78125 -4.328125 7.75 -4.242188 7.6875 -4.171875 C 7.625 -4.097656 7.539062 -4.0625 7.4375 -4.0625 L 3.203125 -4.0625 L 3.203125 -1.828125 L 7.859375 -1.828125 C 7.960938 -1.828125 8.046875 -1.789062 8.109375 -1.71875 C 8.171875 -1.65625 8.203125 -1.570312 8.203125 -1.46875 L 8.203125 -0.34375 C 8.203125 -0.25 8.171875 -0.164062 8.109375 -0.09375 C 8.046875 -0.03125 7.960938 0 7.859375 0 Z M 1.375 0 "/></g></g></g><g fill="#ffffff" fill-opacity="1"><g transform="translate(184.618741, 75.811246)"><g><path d="M 0.46875 0 C 0.382812 0 0.3125 -0.03125 0.25 -0.09375 C 0.195312 -0.15625 0.171875 -0.222656 0.171875 -0.296875 C 0.171875 -0.335938 0.175781 -0.378906 0.1875 -0.421875 L 3.515625 -9.4375 C 3.546875 -9.539062 3.601562 -9.628906 3.6875 -9.703125 C 3.769531 -9.785156 3.890625 -9.828125 4.046875 -9.828125 L 5.84375 -9.828125 C 5.988281 -9.828125 6.101562 -9.785156 6.1875 -9.703125 C 6.269531 -9.628906 6.332031 -9.539062 6.375 -9.4375 L 9.703125 -0.421875 C 9.710938 -0.378906 9.71875 -0.335938 9.71875 -0.296875 C 9.71875 -0.222656 9.6875 -0.15625 9.625 -0.09375 C 9.570312 -0.03125 9.503906 0 9.421875 0 L 7.9375 0 C 7.8125 0 7.710938 -0.03125 7.640625 -0.09375 C 7.578125 -0.164062 7.535156 -0.226562 7.515625 -0.28125 L 6.921875 -1.859375 L 2.953125 -1.859375 L 2.375 -0.28125 C 2.34375 -0.226562 2.296875 -0.164062 2.234375 -0.09375 C 2.171875 -0.03125 2.070312 0 1.9375 0 Z M 3.5 -3.65625 L 6.390625 -3.65625 L 4.9375 -7.6875 Z M 3.5 -3.65625 "/></g></g></g><g fill="#ffffff" fill-opacity="1"><g transform="translate(200.112742, 75.811246)"><g><path d="M 1.390625 0 C 1.285156 0 1.195312 -0.03125 1.125 -0.09375 C 1.0625 -0.164062 1.03125 -0.25 1.03125 -0.34375 L 1.03125 -9.46875 C 1.03125 -9.570312 1.0625 -9.65625 1.125 -9.71875 C 1.195312 -9.789062 1.285156 -9.828125 1.390625 -9.828125 L 2.703125 -9.828125 C 2.847656 -9.828125 2.953125 -9.785156 3.015625 -9.703125 C 3.085938 -9.628906 3.132812 -9.578125 3.15625 -9.546875 L 5.75 -4.796875 L 8.34375 -9.546875 C 8.363281 -9.578125 8.410156 -9.628906 8.484375 -9.703125 C 8.554688 -9.785156 8.660156 -9.828125 8.796875 -9.828125 L 10.109375 -9.828125 C 10.203125 -9.828125 10.28125 -9.789062 10.34375 -9.71875 C 10.414062 -9.65625 10.453125 -9.570312 10.453125 -9.46875 L 10.453125 -0.34375 C 10.453125 -0.25 10.414062 -0.164062 10.34375 -0.09375 C 10.28125 -0.03125 10.203125 0 10.109375 0 L 8.671875 0 C 8.578125 0 8.492188 -0.03125 8.421875 -0.09375 C 8.359375 -0.164062 8.328125 -0.25 8.328125 -0.34375 L 8.328125 -6 L 6.546875 -2.6875 C 6.515625 -2.59375 6.457031 -2.515625 6.375 -2.453125 C 6.300781 -2.390625 6.203125 -2.359375 6.078125 -2.359375 L 5.421875 -2.359375 C 5.296875 -2.359375 5.195312 -2.390625 5.125 -2.453125 C 5.050781 -2.515625 4.988281 -2.59375 4.9375 -2.6875 L 3.171875 -6 L 3.171875 -0.34375 C 3.171875 -0.25 3.132812 -0.164062 3.0625 -0.09375 C 3 -0.03125 2.914062 0 2.8125 0 Z M 1.390625 0 "/></g></g></g></svg>